<svg xmlns="http://www.w3.org/2000/svg" width="1920" height="1080" viewBox="0 0 1920 1080"><defs><style>.cls-1{isolation:isolate;}.cls-2{fill:#d0e3d7;}.cls-3{fill:#c4d4c8;}.cls-4{fill:#a7998a;}.cls-5{fill:#968a7b;}.cls-6{fill:#382d2b;}.cls-7{fill:#eeb373;}.cls-8{fill:#e0ab68;}.cls-9{fill:#d98d53;}.cls-10{fill:#ca844d;}.cls-11{fill:#4d403e;}.cls-12{fill:#fff;}.cls-13{fill:#a4dbf8;}.cls-14{fill:#782c28;}.cls-15{fill:#d43040;}.cls-16,.cls-18{fill:#c61341;}.cls-17{fill:#991636;}.cls-18{mix-blend-mode:multiply;opacity:0.25;}.cls-19{fill:#d32d4b;}.cls-20{fill:#545c6c;}.cls-21{fill:#687185;}.cls-22{fill:#73809f;}.cls-23{fill:#c8c7d8;}.cls-24{fill:#7b8790;}</style></defs><g class="cls-1"><g id="Layer_3" data-name="Layer 3"><path class="cls-2" d="M0,0V1080H1920V0Z"/><polygon class="cls-3" points="249.18 0 224.9 640.16 222.48 703.82 221.16 738.65 208.91 1061.67 36.46 1055.13 48.25 744.27 49.57 709.45 51.99 645.79 76.49 0 249.18 0"/><polygon class="cls-3" points="580.19 0 556.31 629.38 553.9 693.04 552.58 727.87 539.44 1074.21 366.99 1067.67 379.67 733.49 380.99 698.66 383.4 635 407.49 0 580.19 0"/><polygon class="cls-3" points="933.59 0 910.14 617.86 907.73 681.53 906.41 716.36 892.61 1080 719.91 1080 733.49 721.98 734.82 687.15 737.23 623.49 760.89 0 933.59 0"/><polygon class="cls-3" points="1285.38 0 1262.37 606.4 1259.96 670.07 1258.64 704.9 1244.4 1080 1071.71 1080 1085.72 710.52 1087.04 675.69 1089.46 612.03 1112.68 0 1285.38 0"/><polygon class="cls-3" points="1627.58 0 1605 595.25 1602.58 658.92 1601.26 693.75 1586.61 1080 1413.91 1080 1428.35 699.37 1429.67 664.54 1432.08 600.88 1454.88 0 1627.58 0"/><polygon class="cls-3" points="1920 0 1920 1080 1776.9 1080 1791.79 687.55 1793.11 652.72 1795.52 589.06 1817.87 0 1920 0"/></g><g id="Layer_7" data-name="Layer 7"><polygon class="cls-4" points="1920 621 1920 712.23 1791.79 716.09 1601.26 721.84 1428.35 727.05 1258.64 732.18 1085.72 737.39 906.41 742.81 733.49 748.02 552.58 753.48 379.67 758.69 221.16 763.48 48.25 768.69 0 770.14 0 678.94 51.99 677.37 224.9 672.15 383.4 667.36 556.31 662.15 737.23 656.69 910.14 651.47 1089.46 646.06 1262.37 640.84 1432.08 635.73 1605 630.5 1795.52 624.76 1920 621"/><polygon class="cls-5" points="1920 679.97 1920 1080 0 1080 0 737.89 49.57 736.4 222.48 731.18 380.99 726.39 553.9 721.18 734.82 715.72 907.73 710.51 1087.04 705.09 1259.96 699.88 1429.67 694.75 1602.58 689.54 1793.11 683.79 1920 679.97"/></g><g id="Layer_2" data-name="Layer 2"><path class="cls-6" d="M809.52,614.25s8.52,5,24.57,12.3,20.06,13.61,14,19.89S828.9,657,823,655.37s-25-41.9-13.45-41.12"/><path class="cls-7" d="M604.36,886.7s56.17-3.68,113.35,13.07,65.69-6.71,65.69-6.71,8.55,9.85,33.63-.62,52.43-40.76,56.82-53.36,14.87-77.73-43.54-34.69S430.82,776.28,604.36,886.7"/><path class="cls-7" d="M466.43,770.29c45.43-68.2,66.79-157.85-40.65-168.87-173.56-17.79-222.72,178-222.72,178s58.19,153.89,119.81,153.13,63.78-15,84.85-9.71,50.16,8.37,38.22-21.44-66.31-52.89-66.31-52.89c8.69-1,19.81-6.91,31.81-16.39h0S441.83,852.66,499,838C534.18,829,502,777.11,466.43,770.29Z"/><path class="cls-8" d="M411.44,832.08s23.37-14,43.43-46.42,5,57.61,5,57.61S430.21,846,411.44,832.08Z"/><path class="cls-8" d="M783.4,893.06s10.22-21.79-20.71-45.23,122.89-94.09,114.7-36.78c0,0,6.24,19.19-15,45.58,0,0-24.27,29.53-45.34,35.81S793.91,898.92,783.4,893.06Z"/><path class="cls-9" d="M880.94,802.43c-1.68,33-10.46,42.6-10.73,42.89.37-1.15,25.67-79.74-33.1-34.8-16,12.21-17.78,17.62-17.55,19.41-3.49-3-30.13-13.72-194.14-2.39,0,0,.16.24-.21.54-.94.8-5.34,2-24.87.5l-.36,0c-26.78-1.67-32.55,43,11.39,57.6,0,0-104.33,10.47-142.45-27.22,0,0-25.08-31.4-14.05-73.28,0,0,64.23-77.58-36.1-156.55-94.42-74.32-91.39-7.05-90.71,1.14.06.52.09.8.09.8s118.19-19.35,99.38,113.69c0,0-9.78,99.55-63.95,96.41,0,0-43.14-15.71-59.19-14.66,0,0-116.73-80.3-3.77-173.59-2.8,1.93-108.08,75.24-70.47,156.84,38.12,82.7,100.32,45,147.47,83.75s-62.2,42.92-79.25,36.64c0,0,11.35,34.07-54,2.37S111.2,786.19,230.44,665.8s243.49-84.27,243.49-84.27,138.45,16.75,223.72,4.19S809.33,630,822.71,668.57c0,0-4.13,50,11.15,80.42S882.64,769,880.94,802.43Z"/><path class="cls-10" d="M627.42,827.37c-.95.79-5.47,2-25.52.5l-.37,0c-20.56-9.26-40.74-21.4-49-34.35-24.71-38.53-6.17-176,17.51-56.24C570,737.26,571.64,795.47,627.42,827.37Z"/><path class="cls-11" d="M795,829.63s-72.23,60.72-132.42-7.33c0,0-17.06-18.84,60.19-53.38s128.41-31.41,123.4,5.23S818,871.5,795,829.63Z"/><path class="cls-6" d="M578,585s-131.1-9.7-167.22-19.12-64.21,13.61-84.27,30.36c0,0-64.21,22-99.32,74.32S276.3,636,285.33,651.67c0,0-20.07,24.08-26.09,50.25,0,0,91.3-141.32,168.54-64.91,0,0,44,33.35,63.15,20.34s63.64,114.21,87-72.4"/><path class="cls-6" d="M828.34,720.37s-18.56-36.82-22.46-53.28-34,41.11,5.13,63.09C811,730.18,837.63,739.88,828.34,720.37Z"/><path class="cls-6" d="M773.89,770s1-14.65,21.07-9.42S820.58,749,828.34,770,806,808.69,796,800.32c0,0-25.08-5.55-22.07-27.38"/><path class="cls-11" d="M602.34,572.11s-40.12,15.7-66.21,50.25-117.37,62.81-82.26,79.56,67.21,22,111.36,12.56l4,23s57.18-39.78,73.23-95.26,90.29-33.5,97.31-15.7,26.74,32.45,31.43,28.26S791,601.42,810,651.67c0,0,6,15.7,12,22,0,0,13-67-53.17-86.88,0,0,39.12-26.17-36.12-14.66,0,0,66.21-36.64-45.14-20.94C687.62,551.17,643.48,557.46,602.34,572.11Z"/><path class="cls-12" d="M638.46,714.48s18.2,28.86,57.76,27.51.5,0,.5,0S677.59,695.64,638.46,714.48Z"/><path class="cls-6" d="M731.33,660.9s-46.15,35-91.29,50.74c0,0-16.29,9.42,12.42,0,0,0-.39,27.21,43.76,30.35S744.37,683.45,731.33,660.9Z"/><ellipse class="cls-13" cx="666.3" cy="736.82" rx="6.31" ry="14.01" transform="translate(-213.66 1197.83) rotate(-75.53)"/></g><g id="Layer_4" data-name="Layer 4"><path class="cls-14" d="M473,82.57S445,26.47,353,72s-18,275.42,60,217.63c0,0,86-45.09,88-52.5l2-7.41S520,129.15,472,144s-50,1.06-52,20.11,8.2,22.77,28.6,12.45,41.6,21.9,0,47.07-81.6,7.17-86.6-51S359,90,421,93.16,470,97.39,473,82.57Z"/><path class="cls-14" d="M558,86.81S521.82,102,528.91,244.69c0,0,22.09,6.52,29.09,0s0-77.49,0-77.49,33.26-11.71,42.63,0,16.2,73.92,41.78,80.39-2.34-66-2.34-66S600,60.34,558,86.81Z"/><path class="cls-14" d="M704,119.62s26,46.58,33,46.58,18.6-37,17.3-46.58S786,90,791,156.67s18,105.86,6,115.39-29-3.18-30-29.64-3-68.81-3-68.81-12,43.4-22,34.93-10,7.61-38-43.83c0,0,19,103.11,10,106.29s-32,36-41-46.58S680,105.86,704,119.62Z"/><path class="cls-14" d="M820.88,114.85S819,88.92,874,72c0,0,26.1-17.09,25.55,14.21s-7.55,7-47.55,28.13c0,0-4,9.53-1,19,0,0,11,1.06,17-4.23s13,14.82,4,16.94-26-5.3-23,6.35,4,32.81,19,26.46,40-29.64,42-19.05,11,26.46-3,32.81-50,28.58-66,9.53S820.77,127,820.88,114.85Z"/><ellipse class="cls-14" cx="1037.83" cy="202.84" rx="96.26" ry="119.24" transform="translate(-9.32 55.48) rotate(-3.05)"/><path class="cls-14" d="M1152,167.26s16-21.17,26,18,14,33.88,14,33.88,18-39.17,24-60.34,26,13.76,26,13.76,0,8.47-30,72c0,0-7,24-15,23.65s-14,3.88-42-60.7C1155,207.48,1138,178.9,1152,167.26Z"/><path class="cls-14" d="M1255,154.55s44-30.69,51-28.58,3,13.76,9,20.12c0,0,1.29,6.35-18.85,8.46,0,0-10.15-1.05-5.15,14.82,0,0,3.47,7.41,15.24,0s7.76,13.77,7.76,13.77,1,4.23-14,4.23-2,22.23-2,22.23,9,13.76,37-12.7c0,0,4-6.35,8,7.41s1,16.93-34,32.81S1248,156.67,1255,154.55Z"/><path class="cls-14" d="M1359,113.57s-7.54-11,26.15-16.77,141.52,16.69,56.4,91.18c0,0,60.35,61.15,61.82,155.5,0,0-12.31,10.5-31.62,6.68,0,0-15.2-133.62-55.39-134.77,0,0-16.5,22.5-21.86,119.5,0,0-4.19,12-36.49-5.68C1358,329.21,1364.6,169.28,1359,113.57Z"/><path class="cls-14" d="M1542.74,193s-9.29,6.16-7-37.49-8.54-85,19.27-94.21,24,1,21.53,32.68S1552.88,204.49,1542.74,193Z"/><ellipse class="cls-14" cx="1535.5" cy="223.36" rx="17.5" ry="15.88"/><path class="cls-15" d="M486,75S458,22,366,65s-18,260.18,60,205.59c0,0,86-42.59,88-49.59l2-7s17-95-31-81-50,1-52,19,8.2,21.51,28.6,11.76,41.6,20.69,0,44.46S380,215,375,160s-3-78,59-75S483,89,486,75Z"/><path class="cls-15" d="M571,79s-36.18,14.31-29.09,149.15c0,0,22.09,6.16,29.09,0s0-73.21,0-73.21,33.26-11.05,42.63,0,16.2,69.83,41.78,75.95-2.34-62.35-2.34-62.35S613,54,571,79Z"/><path class="cls-15" d="M717,110s26,44,33,44,18.6-35,17.3-44S799,82,804,145s18,100,6,109-29-3-30-28-3-65-3-65-12,41-22,33-10,7.18-38-41.41c0,0,19,97.41,10,100.41s-32,34-41-44S693,97,717,110Z"/><path class="cls-15" d="M833.88,105.5S832,81,887,65c0,0,26.1-16.14,25.55,13.43S905,85,865,105c0,0-4,9-1,18,0,0,11,1,17-4s13,14,4,16-26-5-23,6,4,31,19,25,40-28,42-18,11,25-3,31-50,27-66,9S833.77,117,833.88,105.5Z"/><ellipse class="cls-15" cx="1050.83" cy="188.62" rx="96.24" ry="112.67" transform="matrix(1, -0.07, 0.07, 1, -10.92, 76.77)"/><path class="cls-15" d="M1165,155s16-20,26,17,14,32,14,32,18-37,24-57,26,13,26,13,0,8-30,68c0,0-7,22.68-15,22.34S1196,254,1168,193C1168,193,1151,166,1165,155Z"/><path class="cls-15" d="M1268,143s44-29,51-27,3,13,9,19c0,0,1.29,6-18.85,8,0,0-10.15-1-5.15,14,0,0,3.47,7,15.24,0s7.76,13,7.76,13,1,4-14,4-2,21-2,21,9,13,37-12c0,0,4-6,8,7s1,16-34,31S1261,145,1268,143Z"/><path class="cls-15" d="M1372,104.28s-7.54-10.38,26.15-15.84,141.52,15.77,56.4,86.13c0,0,60.35,57.78,61.82,146.9,0,0-12.31,9.92-31.62,6.32,0,0-15.2-126.23-55.39-127.32,0,0-16.5,21.25-21.86,112.89,0,0-4.19,11.33-36.49-5.37C1371,308,1377.6,156.92,1372,104.28Z"/><path class="cls-15" d="M1555.74,179.31s-9.29,5.82-7-35.41-8.54-80.26,19.27-89,24,1,21.53,30.88S1565.88,190.18,1555.74,179.31Z"/><ellipse class="cls-15" cx="1548.5" cy="208" rx="17.5" ry="15"/><path class="cls-3" d="M568,131s7-64,34-4C602,127,576,124,568,131Z"/><ellipse class="cls-2" cx="1055.5" cy="180" rx="51.5" ry="67"/><path class="cls-2" d="M1406,112.53s109.52,18.37,6.38,55.42"/></g><g id="Layer_5" data-name="Layer 5"><path class="cls-16" d="M1746.28,991.69c-291.91,59.46-397.91,54.74-689.64,8.64-9.49-1.5-15.94-11.53-14-21.87q2.57-14.07,5.31-27.86c1.75-8.91,3.56-17.73,5.44-26.52,12.86-60.71,28.14-119,45.75-180a17.26,17.26,0,0,1,12.23-12.3c40.45-9.71,214.24-43.27,567.64-7.07,6.49.66,12.06,5.47,14.23,12.27,20.73,65.11,40.54,126.89,56.79,192.25,1.53,6.19,3,12.4,4.51,18.67q2.51,10.68,4.89,21.52C1761.62,979.62,1755.62,989.8,1746.28,991.69Z"/><path class="cls-17" d="M1650,744.49s-17.3,10-79.13,17c-4.42.51-9.06,1-13.95,1.47h0c-5.62.53-11.53,1-17.79,1.51h0q-8.08.63-16.94,1.16c-13.33.8-28,1.46-44,1.92-23.39.65-49.77.87-79.51.49-47.18-.59-102.8-2.69-168.23-7l-3.3-.22-2.08-.13q-25.77-1.72-53.6-3.9-14.37-1.12-29.32-2.38s8-1.88,24.6-4.49c12.11-1.92,28.78-4.2,50.24-6.41,3.49-.37,7.13-.72,10.87-1.07,5.25-.5,10.74-1,16.5-1.47q20-1.65,44.06-3c1.18-.08,2.37-.15,3.58-.2,53.87-2.89,123-4.18,208.45-1.44q14.65.48,30,1.1l8.23.35q9.72.43,19.68.93Q1601.7,740.92,1650,744.49Z"/><path class="cls-18" d="M1746.6,991.4c-291.31,62.15-397.36,58.42-689.51,15-9.51-1.41-16-11.37-14.26-21.73,1.62-9.4,3.29-18.67,5-27.91,145.24,30.36,404.87,61.16,706.51-9.23q2.63,10.63,5.11,21.47C1761.82,979.19,1755.92,989.42,1746.6,991.4Z"/><path class="cls-19" d="M1700.91,915.12l-15.49,3.2a9,9,0,0,1-10.57-7.36l-23.61-121.62a9.28,9.28,0,0,1,7-11l15.5-3.21a9,9,0,0,1,10.57,7.36l23.61,121.62A9.3,9.3,0,0,1,1700.91,915.12Z"/><path class="cls-20" d="M1570.87,761.52c-4.42.51-9.06,1-13.95,1.47h0c-5.62.53-11.53,1-17.79,1.51h0q-8.08.63-16.94,1.16c-13.33.8-28,1.46-44,1.92-23.39.65-49.77.87-79.51.49-47.18-.59-102.8-2.69-168.23-7l-3.3-.22h0c3.78-4.4,9.71-11.28,17.2-19.84,6.48-7.38,14.12-16,22.55-25.39,6.5-7.22,13.48-14.89,20.75-22.76,25-27,53.45-56.44,78.52-78.83,31.08-27.79,56.9-44.78,64.18-32.93a69.86,69.86,0,0,0,11.18,13.76c24.43,23.55,61.91,28.92,61.91,28.92l-.85,14,42.78,77.51,13,23.47Z"/><path class="cls-21" d="M1556.91,763c-5.62.53-11.53,1-17.79,1.51h0q-8.08.63-16.94,1.16c-13.33.8-28,1.46-44,1.92-23.39.65-49.77.87-79.51.49-47.18-.59-102.8-2.69-168.23-7l-3.3-.22-2.08-.13v0l2.78-18.21,3.68-24,14.13-92.28h.07s0,0,.07,0a.63.63,0,0,0,.14,0h0c4.37-1,56-12.46,120.22-12.11a465,465,0,0,1,48.25,2.64c29.57,3.18,59.9,9.61,88.17,21.1,0,0-25,25.59,8.82,75.89a202.53,202.53,0,0,0,19,23.81A325.58,325.58,0,0,0,1556.91,763Z"/><path class="cls-21" d="M1539.11,764.5q-8.08.63-16.94,1.16c-13.33.8-28,1.46-44,1.92-23.39.65-49.77.87-79.51.49C1424.65,729.31,1493.21,746.88,1539.11,764.5Z"/><path class="cls-22" d="M1408.93,544.33s45.63,39.62,29.48,56.16-88.4,36.21-35.7,94.8c0,0-98.41,16-114.63,48.36,0,0,9.73-125.32-42.43-117.41C1245.65,626.24,1341,601.63,1408.93,544.33Z"/><path class="cls-23" d="M1575.89,701.33s96.68-50.05,115.35-88a244.68,244.68,0,0,0-28.36-18.54l29.45,7.79,4.29-20.2-17.12-8.19,19-.8S1721.26,478.16,1724,413c0,0-146.52,211.17-167.24,266.39Z"/><path class="cls-24" d="M1575.89,701.34l-8,13.44L1554.78,737l-16.47,27.82c-13.33.79-28,1.45-44,1.91,7.8-10.94,15.31-21.47,22.26-31.19l16.1-22.49c14.58-20.36,24.11-33.63,24.11-33.63Z"/><path class="cls-22" d="M1230.43,761.1q-28.25-1.85-59-4.25l-4.72-6.87-14.63-21.36-47.83-69.79s-60,34-137.27-117.86c1.9,2.11,191.62,212.61,54.32-31.32,1.84,2.38,183.13,237.06,70.1-24.16,1.27,1.69,105.64,139.81,48.74,158l60.1,78.28L1217,743.57Z"/></g><g id="Layer_6" data-name="Layer 6"><path d="M1135.08,787.08s-4.4,96.94,6.59,137.92c0,0,12.43,5,19.95,0s-4.56-77-4.56-77,56.16-2,42.92-36S1135.08,787.08,1135.08,787.08Z"/><path d="M1209.16,800.26s-5.7,92,1.42,118.64c0,0,39.91,10.23,44.85,0,0,0,1.76-11.92-.91-13.63l-2.68-1.71s-28.46,1-30.59,0-2.85-98.18,1.42-100.23C1222.67,803.33,1214.85,796.17,1209.16,800.26Z"/><path d="M1231,894s10-76,31-84,40.13,74,33.74,82a15.16,15.16,0,0,1-10.9.78c-6.43-1.78-4.6-35.78-10.07-35.78s-19.16-5-21.89-1-5.47,29-5.47,34S1231,894,1231,894Z"/><path d="M1529,918.07s2.59-64.12,18.2-72.37,35.88,58.69,31.5,65.84a11,11,0,0,1-8.33,1.47c-5.07-1-6-29.49-10.17-29.08s-15.08-2.73-16.92.81-2.25,24.59-1.92,28.76S1529,918.07,1529,918.07Z"/><path d="M1365,944.87S1385.78,822,1418.3,810.42s55.76,123,45.46,135.58c0,0-7,3.85-16.65.53s-4.43-58.47-12.76-58.85-28.81-9.42-33.26-3.1-10.43,46.77-10.8,54.9S1365,944.87,1365,944.87Z"/><path d="M1329.76,849.32s-16.26-29.75-25-29.88-23,6.88,20.67,39.88c0,0,5.59,26-43.56,74,0,0-11.92,10.06,0,14.53S1351.89,866,1355,828.16c0,0-.59-24.31-15.64-14.07S1348.3,823.32,1329.76,849.32Z"/><path d="M1518.35,851.16s-26.68-47-46.46,1.67,26.23,89.27,48.08,55.81c0,0,10.17-21.39,2.78-25.83s-26.6-2.71-26.6-2.71-4.64,4.18.26,7.88,15.56-2.48,16.92,2.15-12.2,33.16-28.76,6.79,8.44-67,21.35-45.19S1518.35,851.16,1518.35,851.16Z"/><path d="M1583.24,871.23s10-1.87,11.84-.08-3,17.77,4.59,27.59,1.44,11-5.54,10.43S1578.4,884.77,1583.24,871.23Z"/><ellipse cx="1587" cy="857.5" rx="8" ry="6.5"/><path d="M1608.39,913.74s.78-65.31-2.54-69.12,4.33-8.51,9.75-3.51,8.68,31.88,16,42.87,3.49-62.11-.36-72.67,10.64-4.94,10.85-2.24,12.8,96.86-3.93,100.92c0,0-7.32,8.75-20.44-29.62,0,0,4.25,40.44-.41,44.89S1608.26,924.63,1608.39,913.74Z"/><path class="cls-16" d="M1155,828l-3.7-29s28.7,1,35.7,17S1155,828,1155,828Z"/><path class="cls-16" d="M1256,842.06s8.66-30.58,14.83-16.82,5.71,19,5.71,19S1266,846.11,1256,842.06Z"/><path class="cls-16" d="M1542.88,873.31s4.41-24.47,10.12-14.32,5.73,14.22,5.73,14.22A31.35,31.35,0,0,1,1542.88,873.31Z"/><path class="cls-16" d="M1406,863.79s13.07-49.68,22.37-27.32,8.62,30.79,8.62,30.79S1421.08,870.38,1406,863.79Z"/></g><g id="Layer_8" data-name="Layer 8"><path class="cls-14" d="M579.74,343.45a35.9,35.9,0,0,1,7.84.65,3.7,3.7,0,0,1,2,1.09,2.7,2.7,0,0,1,.75,1.87,2.82,2.82,0,0,1-.58,1.63,4,4,0,0,0-.83,1.82,8.13,8.13,0,0,0,1.49,3.54c.65,1.05,1.26,1.57,1.84,1.57a1.58,1.58,0,0,0,1.07-.47,10.45,10.45,0,0,0,1.37-1.71,4.82,4.82,0,0,0,1-2.41,2.21,2.21,0,0,0-.12-.83,11.73,11.73,0,0,0-.85-1.32,3.16,3.16,0,0,1-.53-1.91c0-2.32,2.68-3.49,8-3.49a21.47,21.47,0,0,1,5.9.5,2.74,2.74,0,0,1,1.43,1.17,3.28,3.28,0,0,1,.57,1.85,2.56,2.56,0,0,1-.66,1.91,4.54,4.54,0,0,1-2.28,1,5.78,5.78,0,0,0-2.6,1.34,51,51,0,0,0-4,4.7,33.44,33.44,0,0,0-4.44,6.67,17.65,17.65,0,0,0-.88,6.4q0,3.57.23,6.62a7.78,7.78,0,0,0,.5,2.61,4,4,0,0,0,1.52,1.43,3.41,3.41,0,0,1,1.92,2.93q0,4.19-10.55,4.19a32.8,32.8,0,0,1-8.18-1q-3.25-.82-3.26-3.3a2.84,2.84,0,0,1,2-2.74,3,3,0,0,0,1.86-1.57c.56-1.42.84-4.76.84-10a13.67,13.67,0,0,0-.42-3.84,15.34,15.34,0,0,0-1.84-3.56,75.86,75.86,0,0,0-6.11-8.17,7.94,7.94,0,0,0-2.62-2.12,9.14,9.14,0,0,1-2.15-1.14,2.69,2.69,0,0,1-.74-2c0-1.38.89-2.37,2.65-3S575.59,343.45,579.74,343.45Z"/><path class="cls-14" d="M622.34,355.44a13,13,0,0,1,8.43,2.93,15,15,0,0,1,4.17,5.45,17.33,17.33,0,0,1,1.62,7.34,14.74,14.74,0,0,1-5.22,11.37A16.62,16.62,0,0,1,619.93,387a13.17,13.17,0,0,1-10.15-4.19A14.94,14.94,0,0,1,606,372.2a16.09,16.09,0,0,1,4.62-11.89A15.87,15.87,0,0,1,622.34,355.44Zm-2.09,7.12a2.14,2.14,0,0,0-1.85,1,4.56,4.56,0,0,0-.7,2.67,29.62,29.62,0,0,0,.59,5,43.36,43.36,0,0,0,1.4,5.66c.55,1.68,1.43,2.52,2.65,2.52q2.34,0,2.34-3.48a34,34,0,0,0-.59-5.88,27.22,27.22,0,0,0-1.43-5.37C622.08,363.32,621.28,362.6,620.25,362.56Z"/><path class="cls-14" d="M652.83,357.23v16.7c0,3.57,1,5.36,3,5.36a2.6,2.6,0,0,0,1.49-.51,2.66,2.66,0,0,0,1-1.25q.58-1.47.58-6.59a53.86,53.86,0,0,0-.29-6.9,2.58,2.58,0,0,0-.36-1.13,3.84,3.84,0,0,0-1-.81,2.72,2.72,0,0,1-1.5-2.35c0-1.27.86-2.15,2.57-2.65a34.65,34.65,0,0,1,9.63-1.41c1.77,0,2.65,1.1,2.65,3.29,0,.23,0,.69,0,1.39,0,1-.07,2.19-.08,3.61v13.58c0,.7.5,1.34,1.52,1.92a2.33,2.33,0,0,1,1.28,2.15q0,2.78-5.58,4.29a24.41,24.41,0,0,1-6.35.89,3,3,0,0,1-1.72-.34,1.74,1.74,0,0,1-.54-1.33c-.09-1.27-.42-1.91-1-1.91a1,1,0,0,0-.57.17c-.18.12-.71.53-1.6,1.25a8.94,8.94,0,0,1-5.7,2.13q-5,0-7.11-3.42-1.75-2.87-1.75-9.65c0-1.68,0-3.12,0-4.31V368a13.75,13.75,0,0,0-.4-3.9,3.64,3.64,0,0,0-1.49-1.95,4.75,4.75,0,0,1-1.29-1,1.63,1.63,0,0,1-.28-1c0-1.56,1-2.59,3-3.11a41.13,41.13,0,0,1,10.28-1.32A1.37,1.37,0,0,1,652.83,357.23Z"/><path class="cls-14" d="M719,346.57V374.7a16,16,0,0,0,.17,3.08,2.6,2.6,0,0,0,1,1.32,5.47,5.47,0,0,1,1.28,1.36,3,3,0,0,1,.32,1.42c0,1.64-1.4,2.89-4.22,3.76a26.4,26.4,0,0,1-7.61,1.14,1.48,1.48,0,0,1-1.09-.29,2.91,2.91,0,0,1-.32-1.41c-.09-1-.41-1.57-1-1.57-.3,0-.76.31-1.39.93a8.43,8.43,0,0,1-6,2.55,9.73,9.73,0,0,1-7.32-3.54,17.52,17.52,0,0,1-3.1-4.9,18.08,18.08,0,0,1-1.57-7.3,18.34,18.34,0,0,1,2-8.38,14,14,0,0,1,5.14-5.74,10.39,10.39,0,0,1,5.38-1.66,9.72,9.72,0,0,1,5.46,1.6,1.25,1.25,0,0,0,.63.25c.56,0,.84-.88.84-2.65a2.86,2.86,0,0,0-.46-1.74,3.51,3.51,0,0,0-1.64-1,2.2,2.2,0,0,1-1.65-2.16c0-1.5,1.26-2.67,3.8-3.51q6.72-2.19,9-2.19C718.21,344,719,344.88,719,346.57Zm-14.25,15.49q-1.71,0-2.7,2.13a17.66,17.66,0,0,0-1.34,7.46A12.34,12.34,0,0,0,702,378a2.79,2.79,0,0,0,2.49,1.55c1.13,0,2-.78,2.48-2.33a26.25,26.25,0,0,0,.77-7.5c0-3.17-.31-5.27-.92-6.32A2.41,2.41,0,0,0,704.72,362.06Z"/><path class="cls-14" d="M737.83,357.6v17.9a10.58,10.58,0,0,0,.33,3.11,4,4,0,0,0,1.32,1.82,4.78,4.78,0,0,1,1.09,1.16,2.41,2.41,0,0,1,.27,1.21q0,4-8.57,4a25.07,25.07,0,0,1-7.32-.86,3,3,0,0,1-1.49-1.08,3,3,0,0,1-.56-1.76,2.44,2.44,0,0,1,.29-1.29,8,8,0,0,1,1.47-1.48,4.19,4.19,0,0,0,1.15-2.31,24.59,24.59,0,0,0,.34-4.78c0-.68,0-2-.11-3.81s-.14-2.94-.18-3.25a2.47,2.47,0,0,0-1.46-1.94,2.63,2.63,0,0,1-1.63-2.46,3.09,3.09,0,0,1,2.12-2.9,44,44,0,0,1,6.3-2.25,21,21,0,0,1,5.19-.92C737.35,355.69,737.83,356.32,737.83,357.6Zm-5.2-13.5a5.89,5.89,0,0,1,3.62,1,3.19,3.19,0,0,1,1.34,2.7,4.34,4.34,0,0,1-2,3.76,13.36,13.36,0,0,1-7.74,2.19,4.86,4.86,0,0,1-3-.87,3.58,3.58,0,0,1-1.52-3.08c0-1.77,1.07-3.15,3.22-4.16A14.5,14.5,0,0,1,732.63,344.1Z"/><path class="cls-14" d="M773.06,346.57V374.7a16.94,16.94,0,0,0,.17,3.08,2.57,2.57,0,0,0,1,1.32,5.39,5.39,0,0,1,1.27,1.36,2.84,2.84,0,0,1,.33,1.42q0,2.46-4.23,3.76a26.33,26.33,0,0,1-7.6,1.14,1.46,1.46,0,0,1-1.09-.29,2.77,2.77,0,0,1-.33-1.41c-.09-1-.4-1.57-.94-1.57-.3,0-.77.31-1.39.93a8.46,8.46,0,0,1-6,2.55,9.76,9.76,0,0,1-7.32-3.54,17.27,17.27,0,0,1-3.09-4.9,17.92,17.92,0,0,1,.47-15.68,14,14,0,0,1,5.14-5.74,10.37,10.37,0,0,1,5.38-1.66,9.68,9.68,0,0,1,5.45,1.6,1.32,1.32,0,0,0,.63.25c.56,0,.84-.88.84-2.65a2.8,2.8,0,0,0-.46-1.74,3.46,3.46,0,0,0-1.64-1,2.2,2.2,0,0,1-1.65-2.16q0-2.25,3.81-3.51,6.71-2.19,9-2.19C772.31,344,773.06,344.88,773.06,346.57Zm-14.25,15.49q-1.69,0-2.7,2.13a17.66,17.66,0,0,0-1.34,7.46,12.34,12.34,0,0,0,1.29,6.31,2.79,2.79,0,0,0,2.49,1.55c1.14,0,2-.78,2.48-2.33a25.81,25.81,0,0,0,.78-7.5c0-3.17-.31-5.27-.92-6.32A2.43,2.43,0,0,0,758.81,362.06Z"/><path class="cls-14" d="M809.16,366.84l.37,10.85a5,5,0,0,0,.32,1.82,16.16,16.16,0,0,0,1.62,2.25,2.16,2.16,0,0,1,.39,1.38,2.87,2.87,0,0,1-2.07,2.84q-2.07.79-7.4.8a12.65,12.65,0,0,1-5.12-.74,2.61,2.61,0,0,1-1.54-2.5,2.11,2.11,0,0,1,.15-.91c.11-.19.46-.67,1-1.43s1.05-3.74,1.05-8.63a17.48,17.48,0,0,0-.84-6.28,2.5,2.5,0,0,0-2.52-1.64,2.45,2.45,0,0,0-2.41,1.33,12,12,0,0,0-.65,4.81v6.1a10.57,10.57,0,0,0,.19,2.49,16.22,16.22,0,0,0,1.3,2.62,2.73,2.73,0,0,1,.29,1.27,2.87,2.87,0,0,1-2.15,2.68,19.46,19.46,0,0,1-6.72.86q-7.29,0-7.29-3.54a2.28,2.28,0,0,1,.22-1.13,5,5,0,0,1,1.06-1.09,2.53,2.53,0,0,0,.87-1.34,27.89,27.89,0,0,0,.34-3.72c.12-2.34.19-4.79.19-7.36a8.9,8.9,0,0,0-.28-2.79,4.64,4.64,0,0,0-1.59-1.62,2.46,2.46,0,0,1-1.13-2,2.54,2.54,0,0,1,.92-2,16.21,16.21,0,0,1,3.78-2q2.52-1.05,4.85-1.77a13.48,13.48,0,0,1,3.2-.72,1.63,1.63,0,0,1,1.33.67,2.52,2.52,0,0,1,.54,1.61c0,.06,0,.32,0,.77a3.59,3.59,0,0,0,0,.43c0,1,.35,1.48,1.05,1.48.42,0,.87-.39,1.34-1.17a7.19,7.19,0,0,1,6.56-3.82,8.39,8.39,0,0,1,5.67,2,7.84,7.84,0,0,1,2.31,3.4A22.65,22.65,0,0,1,809.16,366.84Z"/><path class="cls-14" d="M829,363.54V374a5.35,5.35,0,0,0,.77,3,2.31,2.31,0,0,0,2,1.17,5.42,5.42,0,0,0,2.7-1.11,1.43,1.43,0,0,1,.79-.28c.42,0,.8.3,1.15.9a3.75,3.75,0,0,1,.53,1.94,5.19,5.19,0,0,1-1.79,3.67,12.29,12.29,0,0,1-9,3.72,8.7,8.7,0,0,1-6.74-2.78,10.47,10.47,0,0,1-2.55-7.35V362.62a1.7,1.7,0,0,0-.14-.88,1.1,1.1,0,0,0-.75-.17h-2.7c-.51,0-.83-.1-1-.29a2.79,2.79,0,0,1-.21-1.37v-1.36a1.65,1.65,0,0,1,.6-1.35l12-8.88a2.06,2.06,0,0,1,1.1-.28h2.12a1,1,0,0,1,.88.36,2.91,2.91,0,0,1,.23,1.4V354a2,2,0,0,0,.24,1.2,1.46,1.46,0,0,0,1.07.28h4.85q1,0,1.26.42a3.51,3.51,0,0,1,.29,1.77v1.82a4,4,0,0,1-.37,2.05,1.46,1.46,0,0,1-1.34.56h-4.74a1.3,1.3,0,0,0-1,.31A1.87,1.87,0,0,0,829,363.54Z"/><path class="cls-14" d="M879.57,353.81c.44,0,.82.29,1.16.88a4.05,4.05,0,0,1,.49,2,7.64,7.64,0,0,1-.66,2.87,8,8,0,0,1-1.62,2.56,1.7,1.7,0,0,0-.6,1c0,.07,0,.31,0,.74a10.45,10.45,0,0,1,.08,1.17,9.27,9.27,0,0,1-2.1,6.17,12.53,12.53,0,0,1-4.87,3.45A16.93,16.93,0,0,1,865,375.9a12.08,12.08,0,0,1-1.71-.12,9,9,0,0,0-1-.1c-.93,0-1.4.55-1.4,1.64a1.89,1.89,0,0,0,.91,1.65,4.38,4.38,0,0,0,2.45.6,21.67,21.67,0,0,0,3.1-.34,43.88,43.88,0,0,1,6.35-.71,8.27,8.27,0,0,1,4.8,1.2,6.37,6.37,0,0,1,2.16,2.59,8,8,0,0,1,.8,3.57,10.81,10.81,0,0,1-1.94,6,13.55,13.55,0,0,1-6.79,5.12,23.61,23.61,0,0,1-8.14,1.29,18.78,18.78,0,0,1-9.44-2.09,7.73,7.73,0,0,1-2.68-2.59,6.26,6.26,0,0,1-1-3.33,4.47,4.47,0,0,1,.56-2.22,3.39,3.39,0,0,1,1.43-1.45c.53-.24.79-.51.79-.8s-.22-.55-.66-1a6.05,6.05,0,0,1-2.1-4.29,5.7,5.7,0,0,1,1-3.05,7.36,7.36,0,0,1,2.51-2.43c.42-.25.63-.49.63-.74a2.4,2.4,0,0,0-.79-1.29,9.8,9.8,0,0,1-2.7-6.84,8.56,8.56,0,0,1,1-4,9.3,9.3,0,0,1,2.66-3.2,15,15,0,0,1,9.36-3.24,19.45,19.45,0,0,1,4.57.62,17.37,17.37,0,0,0,3.28.55,8.41,8.41,0,0,0,5.69-2.65A1.76,1.76,0,0,1,879.57,353.81Zm-20,34.42c-.44,0-.66.29-.66.89a3.41,3.41,0,0,0,1.68,2.94,7.69,7.69,0,0,0,4.36,1.13,8.45,8.45,0,0,0,4-.8,2.49,2.49,0,0,0,1.46-2.25,1.74,1.74,0,0,0-.55-1.31,1.88,1.88,0,0,0-1.37-.54,8.51,8.51,0,0,0-1.2.12,17.37,17.37,0,0,1-3.28.28,19.38,19.38,0,0,1-2.57-.16,10,10,0,0,1-1.5-.24A2,2,0,0,0,859.61,388.23Zm5.72-28a2.46,2.46,0,0,0-2.12,1.17,5.43,5.43,0,0,0-.8,3.11,13.59,13.59,0,0,0,.87,5.33c.58,1.33,1.34,2,2.28,2a2.51,2.51,0,0,0,2.21-1.25,6,6,0,0,0,.81-3.34,12.42,12.42,0,0,0-.85-5.13A2.78,2.78,0,0,0,865.33,360.19Z"/><path class="cls-14" d="M906.67,372.36H894.34a.72.72,0,0,0-.81.83,5.22,5.22,0,0,0,1.85,3.77,5.64,5.64,0,0,0,4,1.78,8.16,8.16,0,0,0,2.8-.57,8.57,8.57,0,0,0,2.53-1.41,2.58,2.58,0,0,1,1.41-.74c.46,0,.91.33,1.34,1a3.63,3.63,0,0,1,.66,2,5.83,5.83,0,0,1-2.36,4.29A14.16,14.16,0,0,1,896.1,387a12.46,12.46,0,0,1-9.23-3.76,15.32,15.32,0,0,1-3-4.46,17.93,17.93,0,0,1-1.54-7.34,16.74,16.74,0,0,1,2.67-9.3,14.57,14.57,0,0,1,5.88-5.33,12.8,12.8,0,0,1,5.8-1.33,11.82,11.82,0,0,1,8.47,3.33,12.91,12.91,0,0,1,2.83,3.94,11.62,11.62,0,0,1,1.24,5.06,6.75,6.75,0,0,1-.71,3.28A2.1,2.1,0,0,1,906.67,372.36ZM895,366.59h2.65c1.12,0,1.68-.6,1.68-1.81a4.33,4.33,0,0,0-.81-2.72,2.66,2.66,0,0,0-4.43.31,4.78,4.78,0,0,0-.79,2.56,1.8,1.8,0,0,0,.38,1.3A1.9,1.9,0,0,0,895,366.59Z"/><path class="cls-14" d="M926.16,363.54V374a5.35,5.35,0,0,0,.78,3,2.29,2.29,0,0,0,2,1.17,5.42,5.42,0,0,0,2.7-1.11,1.41,1.41,0,0,1,.79-.28c.42,0,.8.3,1.15.9a3.75,3.75,0,0,1,.53,1.94,5.19,5.19,0,0,1-1.79,3.67,12.29,12.29,0,0,1-9,3.72,8.7,8.7,0,0,1-6.74-2.78,10.47,10.47,0,0,1-2.55-7.35V362.62a1.7,1.7,0,0,0-.14-.88,1.1,1.1,0,0,0-.75-.17h-2.7c-.51,0-.83-.1-1-.29a2.79,2.79,0,0,1-.21-1.37v-1.36a1.62,1.62,0,0,1,.6-1.35l12-8.88a2.06,2.06,0,0,1,1.1-.28h2.12a1,1,0,0,1,.88.36,2.94,2.94,0,0,1,.22,1.4V354a2,2,0,0,0,.25,1.2,1.45,1.45,0,0,0,1.07.28h4.85q1,0,1.26.42a3.51,3.51,0,0,1,.29,1.77v1.82a4.13,4.13,0,0,1-.37,2.05,1.47,1.47,0,0,1-1.34.56h-4.75a1.27,1.27,0,0,0-1,.31A1.86,1.86,0,0,0,926.16,363.54Z"/><path class="cls-14" d="M973.12,372.36H960.79a.72.72,0,0,0-.81.83,5.22,5.22,0,0,0,1.85,3.77,5.64,5.64,0,0,0,4,1.78,8.16,8.16,0,0,0,2.8-.57,8.57,8.57,0,0,0,2.53-1.41,2.6,2.6,0,0,1,1.42-.74c.45,0,.9.33,1.33,1a3.63,3.63,0,0,1,.66,2,5.83,5.83,0,0,1-2.36,4.29,14.16,14.16,0,0,1-9.63,3.66,12.46,12.46,0,0,1-9.23-3.76,15.1,15.1,0,0,1-3-4.46,17.78,17.78,0,0,1-1.55-7.34,16.74,16.74,0,0,1,2.67-9.3,14.57,14.57,0,0,1,5.88-5.33,12.83,12.83,0,0,1,5.8-1.33,11.81,11.81,0,0,1,8.47,3.33,13.11,13.11,0,0,1,2.84,3.94,11.75,11.75,0,0,1,1.23,5.06,6.75,6.75,0,0,1-.71,3.28A2.09,2.09,0,0,1,973.12,372.36Zm-11.64-5.77h2.64c1.12,0,1.68-.6,1.68-1.81a4.33,4.33,0,0,0-.81-2.72,2.66,2.66,0,0,0-4.43.31,4.78,4.78,0,0,0-.79,2.56,1.8,1.8,0,0,0,.38,1.3A1.93,1.93,0,0,0,961.48,366.59Z"/><path class="cls-14" d="M1009.2,366.84l.36,10.85a5.22,5.22,0,0,0,.33,1.82,15.78,15.78,0,0,0,1.61,2.25,2.1,2.1,0,0,1,.4,1.38,2.87,2.87,0,0,1-2.07,2.84c-1.39.53-3.85.8-7.4.8a12.62,12.62,0,0,1-5.12-.74,2.62,2.62,0,0,1-1.55-2.5,2.09,2.09,0,0,1,.16-.91c.11-.19.46-.67,1.05-1.43s1-3.74,1-8.63a17.48,17.48,0,0,0-.84-6.28,2.5,2.5,0,0,0-2.52-1.64,2.45,2.45,0,0,0-2.41,1.33,12,12,0,0,0-.66,4.81v6.1a10.41,10.41,0,0,0,.2,2.49,15.38,15.38,0,0,0,1.3,2.62,2.73,2.73,0,0,1,.29,1.27,2.87,2.87,0,0,1-2.15,2.68,19.5,19.5,0,0,1-6.72.86q-7.29,0-7.29-3.54a2.28,2.28,0,0,1,.22-1.13,5,5,0,0,1,1.06-1.09,2.53,2.53,0,0,0,.87-1.34,29.82,29.82,0,0,0,.34-3.72q.18-3.51.18-7.36a9,9,0,0,0-.27-2.79,4.84,4.84,0,0,0-1.59-1.62,2.46,2.46,0,0,1-1.13-2,2.54,2.54,0,0,1,.92-2,16.21,16.21,0,0,1,3.78-2c1.68-.7,3.29-1.29,4.85-1.77a13.38,13.38,0,0,1,3.2-.72,1.63,1.63,0,0,1,1.33.67,2.57,2.57,0,0,1,.53,1.61c0,.06,0,.32,0,.77a3.59,3.59,0,0,0,0,.43c0,1,.35,1.48,1,1.48.42,0,.87-.39,1.34-1.17a7.18,7.18,0,0,1,6.56-3.82,8.35,8.35,0,0,1,5.66,2,7.67,7.67,0,0,1,2.31,3.4A22.13,22.13,0,0,1,1009.2,366.84Z"/><path class="cls-14" d="M1029.66,355.44a13,13,0,0,1,8.42,2.93,15,15,0,0,1,4.17,5.45,17.19,17.19,0,0,1,1.63,7.34,14.74,14.74,0,0,1-5.22,11.37,16.66,16.66,0,0,1-11.41,4.46,13.19,13.19,0,0,1-10.16-4.19,14.94,14.94,0,0,1-3.78-10.6,16.09,16.09,0,0,1,4.62-11.89A15.89,15.89,0,0,1,1029.66,355.44Zm-2.1,7.12a2.14,2.14,0,0,0-1.85,1,4.64,4.64,0,0,0-.69,2.67,28.62,28.62,0,0,0,.59,5,43.36,43.36,0,0,0,1.4,5.66c.54,1.68,1.42,2.52,2.65,2.52,1.55,0,2.33-1.16,2.33-3.48a33.09,33.09,0,0,0-.59-5.88,27.22,27.22,0,0,0-1.43-5.37C1029.4,363.32,1028.59,362.6,1027.56,362.56Z"/><path class="cls-14" d="M1060.14,357.23v16.7q0,5.35,3,5.36a2.61,2.61,0,0,0,1.5-.51,2.72,2.72,0,0,0,1-1.25c.38-1,.58-3.18.58-6.59a53.86,53.86,0,0,0-.29-6.9,2.57,2.57,0,0,0-.37-1.13,3.84,3.84,0,0,0-1-.81,2.73,2.73,0,0,1-1.49-2.35c0-1.27.85-2.15,2.57-2.65a34.54,34.54,0,0,1,9.63-1.41c1.76,0,2.65,1.1,2.65,3.29,0,.23,0,.69,0,1.39,0,1-.06,2.19-.08,3.61v13.58c0,.7.51,1.34,1.52,1.92a2.34,2.34,0,0,1,1.29,2.15q0,2.78-5.59,4.29a24.35,24.35,0,0,1-6.35.89,3.06,3.06,0,0,1-1.72-.34,1.78,1.78,0,0,1-.53-1.33c-.09-1.27-.42-1.91-1-1.91a1.09,1.09,0,0,0-.58.17c-.17.12-.71.53-1.6,1.25a8.92,8.92,0,0,1-5.69,2.13q-5,0-7.11-3.42-1.76-2.87-1.76-9.65c0-1.68,0-3.12,0-4.31V368a13.68,13.68,0,0,0-.41-3.9,3.62,3.62,0,0,0-1.48-1.95,4.84,4.84,0,0,1-1.3-1,1.69,1.69,0,0,1-.28-1c0-1.56,1-2.59,3-3.11a41.24,41.24,0,0,1,10.28-1.32A1.36,1.36,0,0,1,1060.14,357.23Z"/><path class="cls-14" d="M1110.07,353.81c.43,0,.82.29,1.15.88a4.06,4.06,0,0,1,.5,2,7.48,7.48,0,0,1-.67,2.87,8,8,0,0,1-1.61,2.56,1.68,1.68,0,0,0-.61,1c0,.07,0,.31.06.74a10.25,10.25,0,0,1,.07,1.17,9.31,9.31,0,0,1-2.09,6.17,12.61,12.61,0,0,1-4.87,3.45,17,17,0,0,1-6.55,1.23,12,12,0,0,1-1.7-.12,9.3,9.3,0,0,0-1-.1c-.93,0-1.39.55-1.39,1.64a1.88,1.88,0,0,0,.9,1.65,4.41,4.41,0,0,0,2.46.6,21.43,21.43,0,0,0,3.09-.34,44,44,0,0,1,6.35-.71,8.24,8.24,0,0,1,4.8,1.2,6.47,6.47,0,0,1,2.17,2.59,8.18,8.18,0,0,1,.8,3.57,10.81,10.81,0,0,1-1.94,6,13.57,13.57,0,0,1-6.8,5.12,23.51,23.51,0,0,1-8.13,1.29,18.82,18.82,0,0,1-9.45-2.09,7.62,7.62,0,0,1-2.67-2.59,6.18,6.18,0,0,1-1-3.33,4.48,4.48,0,0,1,.57-2.22,3.37,3.37,0,0,1,1.42-1.45c.53-.24.79-.51.79-.8s-.22-.55-.65-1a6.05,6.05,0,0,1-2.1-4.29,5.61,5.61,0,0,1,1-3.05,7.34,7.34,0,0,1,2.5-2.43c.42-.25.63-.49.63-.74a2.43,2.43,0,0,0-.78-1.29,9.76,9.76,0,0,1-2.71-6.84,8.56,8.56,0,0,1,1-4,9.53,9.53,0,0,1,2.66-3.2,15,15,0,0,1,9.37-3.24,19.44,19.44,0,0,1,4.56.62,17.49,17.49,0,0,0,3.28.55,8.41,8.41,0,0,0,5.7-2.65A1.76,1.76,0,0,1,1110.07,353.81Zm-20,34.42c-.43,0-.65.29-.65.89a3.42,3.42,0,0,0,1.67,2.94,7.71,7.71,0,0,0,4.36,1.13,8.49,8.49,0,0,0,4-.8,2.48,2.48,0,0,0,1.45-2.25,1.74,1.74,0,0,0-.55-1.31,1.87,1.87,0,0,0-1.36-.54,8.76,8.76,0,0,0-1.21.12,17.29,17.29,0,0,1-3.28.28,19.38,19.38,0,0,1-2.57-.16,9.88,9.88,0,0,1-1.49-.24A2,2,0,0,0,1090.1,388.23Zm5.72-28a2.45,2.45,0,0,0-2.11,1.17,5.43,5.43,0,0,0-.8,3.11,13.59,13.59,0,0,0,.87,5.33c.57,1.33,1.33,2,2.28,2a2.5,2.5,0,0,0,2.2-1.25,6,6,0,0,0,.81-3.34,12.42,12.42,0,0,0-.85-5.13A2.78,2.78,0,0,0,1095.82,360.19Z"/><path class="cls-14" d="M1127.83,345.61l-.34,12.91q-.06,2.31,1.2,2.31c.42,0,.83-.34,1.24-1,1.69-2.9,4-4.35,6.79-4.35a8.18,8.18,0,0,1,6.64,3,7.93,7.93,0,0,1,1.56,3.14,24.17,24.17,0,0,1,.51,5.21l.24,11.12a5.48,5.48,0,0,0,.33,2.13,5.84,5.84,0,0,0,1.4,1.7,2.21,2.21,0,0,1,.76,1.69q0,3.33-8.55,3.33c-5.08,0-7.61-1-7.61-3.11a2,2,0,0,1,.13-.81c.09-.18.39-.67.92-1.47q1.1-1.69,1.1-8.48a19.65,19.65,0,0,0-.66-6c-.57-1.7-1.61-2.55-3.09-2.55a2.51,2.51,0,0,0-2.36,1.35,8.42,8.42,0,0,0-.55,3.7v5.95a44.13,44.13,0,0,0,.31,4.46,7.46,7.46,0,0,0,1.21,2,2.41,2.41,0,0,1,.5,1.51q0,3.48-7.72,3.48-9,0-9-3.61a2.4,2.4,0,0,1,.29-1.28,7.93,7.93,0,0,1,1.41-1.37c.67-.55,1.13-2,1.38-4.48s.38-6.47.38-12.1a89,89,0,0,0-.31-9.18,3.6,3.6,0,0,0-.38-1.4,3.12,3.12,0,0,0-1-.91,2.78,2.78,0,0,1-1.63-2.28,3,3,0,0,1,1.24-2.5,16.91,16.91,0,0,1,4.72-2.06,25.78,25.78,0,0,1,7.53-1.54A1.31,1.31,0,0,1,1127.83,345.61Z"/><path class="cls-14" d="M1182.42,350.45c-1.21,0-2,.36-2.23,1.08a15.35,15.35,0,0,0-.59,3.14,37.41,37.41,0,0,0-.27,4.25,1.76,1.76,0,0,0,.63,1.57,4.47,4.47,0,0,0,2.36.43,2.48,2.48,0,0,0,1.7-.49,2.83,2.83,0,0,0,.76-1.66c.4-2.24,1.23-3.36,2.47-3.36q3.2,0,3.2,9,0,5.7-1.39,8.38a2.55,2.55,0,0,1-2.31,1.63c-1,0-1.63-.81-1.78-2.43a12.34,12.34,0,0,0-.33-2.22,3.1,3.1,0,0,0-.75-1.23,3.23,3.23,0,0,0-2.52-1,2.08,2.08,0,0,0-1.6.49,2.89,2.89,0,0,0-.37,1.88c0,.17,0,1.12,0,2.87q0,5.32.94,6.5a1.56,1.56,0,0,0,.65.6,11.67,11.67,0,0,0,1.71.39,1.77,1.77,0,0,1,1.16.83,3.13,3.13,0,0,1-1.89,4.68,37.12,37.12,0,0,1-9.58,1,25.29,25.29,0,0,1-7.45-.74,3,3,0,0,1-1.49-1.23,3.55,3.55,0,0,1-.58-2,2.92,2.92,0,0,1,.84-2.18,8.68,8.68,0,0,1,1.44-.77c1-.46,1.57-1.5,1.76-3.15.32-2.52.47-8.29.47-17.28a50.06,50.06,0,0,0-.34-7.55,3.24,3.24,0,0,0-1.65-2.41,5.65,5.65,0,0,1-1.72-1.18,2.32,2.32,0,0,1-.41-1.47,2.79,2.79,0,0,1,1.13-2.26,4.27,4.27,0,0,1,2.78-.91c.7,0,1.73.06,3.07.18q4.27.4,10.23.4a85.52,85.52,0,0,0,12.83-.61,5.67,5.67,0,0,1,.68-.06,2.27,2.27,0,0,1,1.76,1.23,13.44,13.44,0,0,1,2.31,7.64,5.38,5.38,0,0,1-.76,3.05,2.31,2.31,0,0,1-2,1.14,2,2,0,0,1-1.39-.43,32.65,32.65,0,0,1-2.42-3,5.33,5.33,0,0,0-2.84-2.09A28.85,28.85,0,0,0,1182.42,350.45Z"/><path class="cls-14" d="M1212.15,355.44a13,13,0,0,1,8.42,2.93,15,15,0,0,1,4.17,5.45,17.33,17.33,0,0,1,1.62,7.34,14.74,14.74,0,0,1-5.22,11.37,16.62,16.62,0,0,1-11.41,4.46,13.17,13.17,0,0,1-10.15-4.19,14.94,14.94,0,0,1-3.78-10.6,16.09,16.09,0,0,1,4.62-11.89A15.88,15.88,0,0,1,1212.15,355.44Zm-2.1,7.12a2.14,2.14,0,0,0-1.85,1,4.56,4.56,0,0,0-.7,2.67,29.62,29.62,0,0,0,.59,5,43.27,43.27,0,0,0,1.41,5.66c.54,1.68,1.42,2.52,2.65,2.52,1.55,0,2.33-1.16,2.33-3.48a34,34,0,0,0-.59-5.88,27.22,27.22,0,0,0-1.43-5.37C1211.88,363.32,1211.08,362.6,1210.05,362.56Z"/><path class="cls-14" d="M1244.49,355.44a13,13,0,0,1,8.42,2.93,14.93,14.93,0,0,1,4.17,5.45,17.19,17.19,0,0,1,1.63,7.34,14.74,14.74,0,0,1-5.22,11.37,16.64,16.64,0,0,1-11.41,4.46,13.16,13.16,0,0,1-10.15-4.19,14.94,14.94,0,0,1-3.78-10.6,16.12,16.12,0,0,1,4.61-11.89A15.89,15.89,0,0,1,1244.49,355.44Zm-2.1,7.12a2.15,2.15,0,0,0-1.85,1,4.64,4.64,0,0,0-.69,2.67,28.62,28.62,0,0,0,.59,5,43.36,43.36,0,0,0,1.4,5.66c.54,1.68,1.43,2.52,2.65,2.52q2.34,0,2.34-3.48a34,34,0,0,0-.59-5.88,27.94,27.94,0,0,0-1.43-5.37C1244.23,363.32,1243.42,362.6,1242.39,362.56Z"/><path class="cls-14" d="M1291.27,346.57V374.7a16,16,0,0,0,.17,3.08,2.57,2.57,0,0,0,1,1.32,5.39,5.39,0,0,1,1.27,1.36,2.84,2.84,0,0,1,.33,1.42q0,2.46-4.23,3.76a26.35,26.35,0,0,1-7.61,1.14,1.44,1.44,0,0,1-1.08-.29,2.77,2.77,0,0,1-.33-1.41c-.09-1-.41-1.57-1-1.57-.29,0-.76.31-1.39.93a8.43,8.43,0,0,1-6,2.55,9.76,9.76,0,0,1-7.32-3.54,17.52,17.52,0,0,1-3.1-4.9,18.08,18.08,0,0,1-1.57-7.3,18.34,18.34,0,0,1,2-8.38,14,14,0,0,1,5.15-5.74,10.36,10.36,0,0,1,5.37-1.66,9.72,9.72,0,0,1,5.46,1.6,1.25,1.25,0,0,0,.63.25c.56,0,.84-.88.84-2.65a2.8,2.8,0,0,0-.46-1.74,3.46,3.46,0,0,0-1.64-1,2.2,2.2,0,0,1-1.65-2.16q0-2.25,3.8-3.51,6.72-2.19,9-2.19C1290.52,344,1291.27,344.88,1291.27,346.57ZM1277,362.06q-1.71,0-2.7,2.13a17.66,17.66,0,0,0-1.34,7.46,12.34,12.34,0,0,0,1.29,6.31,2.79,2.79,0,0,0,2.49,1.55c1.14,0,2-.78,2.48-2.33a26.25,26.25,0,0,0,.77-7.5c0-3.17-.3-5.27-.92-6.32A2.41,2.41,0,0,0,1277,362.06Z"/><path class="cls-14" d="M1309,356.24h7a26.08,26.08,0,0,1,3.08.11,1.5,1.5,0,0,1,1,.54,2,2,0,0,1,.45,1.38,7.08,7.08,0,0,1-.87,2.93l-7,14.52a7.18,7.18,0,0,0-.86,2.55c0,1,.62,1.45,1.86,1.45a3.38,3.38,0,0,0,2.14-.63,6,6,0,0,0,1.51-2.2,8.76,8.76,0,0,1,1-1.9,1.2,1.2,0,0,1,1-.48,2.21,2.21,0,0,1,1.89,1.08,4.85,4.85,0,0,1,.73,2.78,10.87,10.87,0,0,1-.89,4.08,11.81,11.81,0,0,1-2.26,3.62,2.82,2.82,0,0,1-1.94,1.08,2.59,2.59,0,0,1-1-.31,7,7,0,0,0-3-.68h-13.74c-2.33,0-3.49-.79-3.49-2.37a2.79,2.79,0,0,1,.26-1.11c.18-.39.79-1.61,1.84-3.67l6-11.34a13,13,0,0,0,1.68-4c0-.82-.73-1.23-2.2-1.23a3,3,0,0,0-1.8.5,6.2,6.2,0,0,0-1.43,1.9,10.76,10.76,0,0,1-1.32,2.14,1.61,1.61,0,0,1-1.22.48,2,2,0,0,1-1.68-.94,4.06,4.06,0,0,1-.66-2.39,13.58,13.58,0,0,1,1.6-6c1-2,2-3.05,2.92-3.05a2.26,2.26,0,0,1,.84.22,9.55,9.55,0,0,0,2.29.68Q1303.42,356.12,1309,356.24Z"/><path class="cls-14" d="M1330.46,344.53a5,5,0,0,1,4,2c1.46,1.73,2.18,4.17,2.18,7.34a27.26,27.26,0,0,1-.93,6.76,27.94,27.94,0,0,1-2.48,6.46c-1.17,2.13-2.12,3.2-2.83,3.2s-1.69-1.36-3-4.1a33.8,33.8,0,0,1-2.24-6.47,27.32,27.32,0,0,1-.83-6.31,11.85,11.85,0,0,1,1.34-5.89A5.23,5.23,0,0,1,1330.46,344.53Zm.13,29.12a4.9,4.9,0,0,1,3.91,2,7,7,0,0,1,1.63,4.63,7.11,7.11,0,0,1-1.68,4.73,5.11,5.11,0,0,1-4,2,5,5,0,0,1-3.91-1.81,7,7,0,0,1-1.76-4.87,6.82,6.82,0,0,1,1.55-4.53A5.3,5.3,0,0,1,1330.59,373.65Z"/></g></g></svg>