<svg xmlns="http://www.w3.org/2000/svg" width="1342.3" height="289.13" viewBox="0 0 1342.3 289.13"><defs><style>.cls-1{fill:#fff;}</style></defs><g id="Layer_3" data-name="Layer 3"><path class="cls-1" d="M144,313a324.93,324.93,0,0,0,122.3-44.16c102-62.66,136.67-164,146-195.12,0,0,19-47,20-39s18-36-42,106,23,93,49,48,84-147,83-127-65,92-94,190,45,35,55,25,73-69,74-56,6,26-18,63c0,0-5,35,22,15s52-57,52-57l29-69s-48,10-73,8,68-13,77-17c0,0,43-95,50-86s-18,81-18,81,32-3,26,0-31,8-31,8-35,58-53,74c0,0-30,76-1,57s82-84,82-84,50-142,63-136-24,105-55,136l-27,66s36-69,62-62-30,41-30,77,71-88,69-69-48,80.27-26,80.14,139-235.14,148-214.14-27,92-79,145-2,69,30,40c0,0,32-63,67-52,0,0,67-156,72-132s-69,127-72,167,59,19,65,13,36-67,63-53-64,66-64,66-19,25,31,16,256-38,349-20a1490,1490,0,0,0-162.63,7C1082.94,300.67,985.84,325.42,977,303c-1.74-4.41.33-9.63,3.3-14.28,0,0-73,31-68-26,0,0-50,77-58,29,0,0-60,34-58-16,0,0-75,91-45-1,0,0-61,76-36-2,0,0,31-48,24-47s-35,22-61,74c0,0-12,23-7-5s12-30,20-60c0,0-56,71-80,74s-5-50-5-50-38,56-59,53c0,0-17,0-16-18,0,0-34,41-36,6,0,0-1-26,11-33,0,0-41.48,53.3-68.24,49.15s-45.76-24.15-7.76-99.15c0,0-32,35-52,30s-26-37-16-59C346.53,210.37,297.44,274.59,206,306c-82.61,28.38-153.48,14.08-181,7a430.11,430.11,0,0,0,70,4A430.76,430.76,0,0,0,144,313Z" transform="translate(-25 -33.8)"/><path d="M530,286s-39,36-20-12c0,0,14-30,32-35C542,239,530,262,530,286Z" transform="translate(-25 -33.8)"/><path d="M539,274s9-41,13-41C552,233,553,256,539,274Z" transform="translate(-25 -33.8)"/><path d="M636.3,209.07,652,172l14-3S646.6,198.14,636.3,209.07Z" transform="translate(-25 -33.8)"/><path d="M655,161l16-2s29-84,15-59S655,161,655,161Z" transform="translate(-25 -33.8)"/><path d="M721,186s37-102,38-88S726,182,721,186Z" transform="translate(-25 -33.8)"/><path d="M832,215s64-114,65-106S870,174,832,215Z" transform="translate(-25 -33.8)"/><path d="M873,262c-1-.24,27-38,45-30C918,232,877,263,873,262Z" transform="translate(-25 -33.8)"/><path d="M864.51,285.12S863,317,913,253l1-9S892,268.24,864.51,285.12Z" transform="translate(-25 -33.8)"/><path d="M1006,262s34-49,38-32S1006,262,1006,262Z" transform="translate(-25 -33.8)"/><path class="cls-1" d="M780,203c5.26-15.79,26-1,15,3S777,212,780,203Z" transform="translate(-25 -33.8)"/></g></svg>