<svg xmlns="http://www.w3.org/2000/svg" width="856" height="856" viewBox="0 0 856 856"><defs><style>.cls-1{fill:#fff;}.cls-2{fill:#362322;}.cls-3{fill:#482d29;}.cls-4{fill:#bd9f8e;}.cls-5{fill:#6d4d3c;}.cls-6,.cls-7,.cls-8,.cls-9{fill:#a0705d;}.cls-6{opacity:0.24;}.cls-7{opacity:0.29;}.cls-9{opacity:0.2;}.cls-10{fill:#a6816e;}.cls-11{fill:#44412c;}.cls-12{fill:#805f59;}</style></defs><g id="Layer_1" data-name="Layer 1"><path d="M1082,549" transform="translate(-445 -147)"/><circle class="cls-1" cx="428" cy="428" r="428"/><path d="M1293.75,577.86c0,205.42-147.16,376.48-341.8,413.49q-4.62.89-9.29,1.65-6.37,1.08-12.81,2a423.86,423.86,0,0,1-57,3.83q-8.31,0-16.53-.32c-224.81-8.68-404.39-193.67-404.39-420.6,0-232.46,188.45-420.92,420.92-420.92a420.47,420.47,0,0,1,420.92,420.92Z" transform="translate(-445 -147)"/><path d="M1009,825s16.65-73.64,10.82-113.82" transform="translate(-445 -147)"/></g><g id="Layer_7" data-name="Layer 7"><path class="cls-2" d="M842.08,388.51S807,292.69,895.68,249.56s-53.6,139-53.6,139" transform="translate(-445 -147)"/></g><g id="Layer_4" data-name="Layer 4"><path class="cls-3" d="M1281.74,540C1272,636,1290,711,1234,751l-56,40L944.53,963.85c7.05,13.06,5.21,21.18-.87,26.15q-6.37,1.08-12.81,2a423.86,423.86,0,0,1-57,3.83q-8.31,0-16.53-.32c-7.8-30.75-13-100.81-6.3-253.46,15-343,30-402,30-402s-6-119,51-116,41,14,81,20c0,0,41-25,152,27.52l1.25.59c87.67,42.13,115.14,126.7,117.73,207.74A453.94,453.94,0,0,1,1281.74,540Z" transform="translate(-445 -147)"/></g><g id="Layer_6" data-name="Layer 6"><path class="cls-3" d="M840.8,406s-7.8-10-7.8,14,13.59,24.94,7.8-14" transform="translate(-445 -147)"/></g><g id="Layer_3" data-name="Layer 3"><path class="cls-4" d="M881,316s-43,40.69-43,98c0,57-12,59-12,59-31,37-22,36-40,62s-25,36-9,50,22,10,21,29-11,20,6,37c0,0-9,21,0,26s-7,49,3,60,56,18,56,18,41,1,64,40,41,75,41,75,258-85,104-247c0,0,93-2,93-94s-65-45-74-26-21,47-29,62-16-87-16-87-95-19-110-92c0,0,13,66.78,45,91.89C981,477.89,897,443,881,316Z" transform="translate(-445 -147)"/><path class="cls-5" d="M974.41,727.74s83-16.24,88.3-90.41c0,0,.18-7.81,1.46-5.35,0,0,4.84-2.25-1.46,24.4s-29.47,47.31-42.89,54.8S969.42,733.05,974.41,727.74Z" transform="translate(-445 -147)"/></g><g id="Layer_12" data-name="Layer 12"><path class="cls-6" d="M851,753a944.72,944.72,0,0,0,135-27s-18.43,34.75-72.52,51.39C913.48,777.36,897.75,758,851,753Z" transform="translate(-445 -147)"/><path class="cls-7" d="M1012,819.12s-1.33-80.76,7.84-107.94c0,0,44.43-30.36,44.8-73.77S1171,673,1171,673s-123,176.24-159,146.12" transform="translate(-445 -147)"/><path class="cls-6" d="M772.14,580S784,583,801,573c14.56-8.57,39.49,9,36.86,14-.37.71-3.83.79-3.8,1.28,0,.24.83.26.94.68s-.5.93-1.26,1.43c0,0-23.08,44.57-36.41,29.57a38,38,0,0,0-.1-17C795,594,782.28,593,772.14,580Z" transform="translate(-445 -147)"/><path class="cls-8" d="M753,603" transform="translate(-445 -147)"/><path class="cls-6" d="M824.38,511.59S846,489,848,475s13-27,30-13-11,63-29,65S809.76,529.17,824.38,511.59Z" transform="translate(-445 -147)"/><path class="cls-9" d="M1057.34,561.93S1012,616,960,623s41.44-54,69.72-149.5c0,0,13.28,4.5,16.28,4.5Z" transform="translate(-445 -147)"/></g><g id="Layer_9" data-name="Layer 9"><path d="M1171.92,866.55c-34.51,31.85-169.69,90.3-220.48,111.63,2.67,3,3.84,6.66,1.51,10.17q-11,2.08-22.1,3.6c.47-3.06,1.18-7.52,2.26-13.88l.09-.52s0,0,0-.08c2.55-15,10.11-48.08,31.44-90.28,0,0-29-32.86-18-36.53,0,0,119.28-41.66,147.27-116.66S1214.67,827.11,1171.92,866.55Z" transform="translate(-445 -147)"/></g><g id="Layer_8" data-name="Layer 8"><path class="cls-8" d="M804,651s-15.29-11.42-8.15-25.21c0,0-1.85,6.21,6.15,1.21s16,12,59,28c0,0-17,19-57,22C804,677,794,674,804,651Z" transform="translate(-445 -147)"/><path class="cls-5" d="M827.34,586.92s1.86-2.56-19.56-6.09-9.49,5.25-2.66,8.51c0,0,4.76,1.13,14.12-1C819.24,588.37,827,587.88,827.34,586.92Z" transform="translate(-445 -147)"/><path class="cls-5" d="M834.06,588.32s15.11-6.34,4.4-15.85S822.31,558.05,827,560.8s19.07,13.88,17.54,17.78-1.95,6.72-10.81,11.85C833.74,590.43,829.57,591.24,834.06,588.32Z" transform="translate(-445 -147)"/><path class="cls-10" d="M1084,596s-3-2,10-11-10.3-37.48-10.3-37.48S1086,534,1093,526c0,0,34,35,26,51S1085,602,1084,596Z" transform="translate(-445 -147)"/><path class="cls-10" d="M1102,518.17S1130,482,1141,496s14,35,11,44S1101.92,523.34,1102,518.17Z" transform="translate(-445 -147)"/><path class="cls-5" d="M881,456s15.75-10,51.38,11S901,450,882,459C882,459,876,461,881,456Z" transform="translate(-445 -147)"/></g><g id="Layer_11" data-name="Layer 11"><path class="cls-1" d="M931,476s14,5,15,7-82,36-71,17h0s-4-20,5-32Z" transform="translate(-445 -147)"/><path class="cls-11" d="M875.16,500s-4-16,3-29,20,10,11,33C889.16,504,875.16,510,875.16,500Z" transform="translate(-445 -147)"/></g><g id="Layer_5" data-name="Layer 5"><path class="cls-3" d="M865.4,410.58S854.91,437.52,880,434.46s41.38-24.87,85.88-16.76S949.65,393.66,865.4,410.58Z" transform="translate(-445 -147)"/><path class="cls-2" d="M854,474a87.41,87.41,0,0,0,27-10s43,3,65,19c0,0-10-10-68-12,0,0-3,3.75-17,9.87,0,0,9-6.87,11-9.87C872,471,878,473,854,474Z" transform="translate(-445 -147)"/><path class="cls-2" d="M909.4,501.35C939.61,489.26,946,483,946,483l-10,3c-61,28-61,14-61,14-1.39-.46-2.77,3.14-.4,5.81-1.11.92-2.92,2.9-5.6,7.19,0,0,3.57-4.08,7.49-5.75,2.1,1.1,5.46,1.66,10.58,1-.53,1.26-.8,3.68.93,8.11a30.88,30.88,0,0,1,1.92-8.58,85.72,85.72,0,0,0,14-4.26l.58-.23c-.13,2,.21,5.21,2.48,9.73C907,513,906.36,505.44,909.4,501.35Z" transform="translate(-445 -147)"/><path class="cls-12" d="M952,584.27s1.47-5.28,4.4-3.52,1.47,2.35-1.47,5.28S952,584.27,952,584.27Z" transform="translate(-445 -147)"/><path class="cls-12" d="M941,604s-3-1-2-3,3-2,3,1S941,604,941,604Z" transform="translate(-445 -147)"/><path class="cls-3" d="M1072,623s-48.22,276.08,101.89,171S1072,623,1072,623Z" transform="translate(-445 -147)"/></g><g id="Layer_10" data-name="Layer 10"><ellipse cx="1112.51" cy="599.56" rx="6.5" ry="5.51" transform="translate(3.82 1528.04) rotate(-86.64)"/><ellipse cx="1092.78" cy="607.71" rx="6.5" ry="5.51" transform="translate(-22.88 1516.02) rotate(-86.64)"/><rect x="646" y="465" width="3" height="16"/><path d="M1083.7,625.79s4.89-4.79,21.1,2.21c0,0-4.23,24.29-12,38.15C1092.78,666.15,1086.4,664.58,1083.7,625.79Z" transform="translate(-445 -147)"/><ellipse cx="1146.45" cy="516.06" rx="4.84" ry="4.54" transform="translate(119.13 1483.31) rotate(-86.64)"/><ellipse cx="1164.03" cy="506.36" rx="4.84" ry="4.54" transform="translate(-125.35 1307.2) rotate(-71.81)"/></g></svg>