<svg xmlns="http://www.w3.org/2000/svg" width="1920" height="1080" viewBox="0 0 1920 1080"><defs><style>.cls-1{fill:#d0e3d7;}.cls-2{fill:#c4d4c8;}.cls-3{fill:#a7998a;}.cls-4{fill:#968a7b;}.cls-5{fill:#999faa;}.cls-6{fill:#a5b6be;}.cls-7{fill:#98acb5;}.cls-8{fill:#c29e81;}.cls-9{fill:#566865;}.cls-10{fill:#6272a5;}.cls-11{fill:#dab69c;}.cls-12{fill:#5e7965;}.cls-13{fill:#5e795d;}.cls-14{fill:#5a6448;}.cls-15{fill:#8795b7;}.cls-16{fill:#ebd2cb;}.cls-17{fill:#b2bb90;}.cls-18{fill:#b9947f;}.cls-19{fill:#b9cad2;}.cls-20{fill:#dcf2f5;}.cls-21{fill:#649dcd;}.cls-22{fill:#4977bb;}.cls-23{fill:#887a6b;}.cls-24{fill:#908776;}.cls-25{fill:#a1aebc;}.cls-26{fill:#a4c0cf;}.cls-27,.cls-35{fill:#fff;}.cls-27{opacity:0.45;}.cls-28{fill:#382d2b;}.cls-29{fill:#e0ab68;}.cls-30{fill:#d5ae81;}.cls-31{fill:#ca844d;}.cls-32{fill:#eeb373;}.cls-33{fill:#d98d53;}.cls-34{fill:#4d403e;}.cls-36{fill:#e8b385;}.cls-37,.cls-38{fill:#e28e47;}.cls-37{opacity:0.69;}.cls-39{fill:#7a6b68;}.cls-40{fill:#782c28;}.cls-41{fill:#d43040;}.cls-42{fill:#ede1d2;}</style></defs><g id="bg"><rect class="cls-1" width="1920" height="862"/></g><g id="striber"><rect class="cls-2" x="37" width="108" height="817"/><rect class="cls-2" x="261" width="108" height="816"/><rect class="cls-2" x="468" width="108" height="801"/><rect class="cls-2" x="675" width="108" height="801"/><rect class="cls-2" x="896" width="108" height="801"/><rect class="cls-2" x="1116" width="108" height="796"/><rect class="cls-2" x="1330" width="108" height="794"/><rect class="cls-2" x="1557" width="108" height="801"/><rect class="cls-2" x="1766" width="108" height="801"/></g><g id="Layer_10" data-name="Layer 10"><rect class="cls-3" y="695" width="1920" height="82"/></g><g id="gulv"><rect class="cls-4" y="748" width="1920" height="332"/></g><g id="stol2"><path class="cls-5" d="M1667.67,785.38s-6,7.85-29-55.75-61-276.36-127-301.49c0,0,79-73,100,85.58,0,0,39,215.13,77,266.95C1688.67,780.67,1696.67,788.52,1667.67,785.38Z"/><path class="cls-5" d="M1182.68,785.38s6,7.85,29-55.75,61-276.36,127-301.49c0,0-79-73-100,85.58,0,0-39,215.13-77,266.95C1161.68,780.67,1153.68,788.52,1182.68,785.38Z"/><path class="cls-6" d="M1351,58h138.09S1535,56,1552,102s104.73,269.73,57.87,309.37S1453,448,1453,448s-207,8-223-48,0-111,37-219S1317,58,1351,58Z"/><path class="cls-7" d="M1268,360s-39,3.46,0,22.73S1412,414,1497,404s151.76-41,62.88-44S1374,351,1268,360Z"/></g><g id="mand"><path class="cls-8" d="M463.68,682.88S414,826,449,816s327.29,7.06,103.64-40c0,0-60.62-22-39.13-65.52S463.68,682.88,463.68,682.88Z"/><path class="cls-9" d="M449,815s-20-5-20,5,26,9,26,9,239,13,212-18-59-45-69-38-18.72,34.39-18.72,34.39Z"/><path class="cls-10" d="M399,267s221,5,236,35S591,738,454,684c0,0,32-205,61-274S305,266,399,267Z"/><path class="cls-11" d="M602.06,0c-2,13.13-10.4,34.46-29.06,68,0,0-22,65-45,78-21.76,12.3-48.44,5-73.91-17.05q-2.18-1.87-4.34-3.9C423,100,476,45,476,45s3.13,1,7,2.63c4.16,1.74,9.22,4.22,12.36,7l0,0a12.49,12.49,0,0,1,1.63,1.74l0,0A7.17,7.17,0,0,1,498,58l.17-.28c2.28-3.7,27-43.49,42-57.72Z"/><path class="cls-11" d="M552,718s-34,74-12,79,194,45-4,71c0,0-113,29-96-30S492,596,552,718Z"/><path class="cls-12" d="M561,864.33s8.58-59.44,58.28-61.88c0,0,34.71-.45,65.71,58.55,0,0,17,22.62-124,19.31,0,0-87,.69-110,4.69s-26-18.18,0-19.59S561,864.33,561,864.33Z"/><path class="cls-8" d="M483,779s-15,20-16,27,8,15.85,8,20.43S474,823,466,812c0,0-4-9,7-22S485,775,483,779Z"/><path class="cls-8" d="M495.4,54.67S512,71,511,88s-2.44-13-9.72-21.47S495.4,54.67,495.4,54.67Z"/><path class="cls-13" d="M483,47.63C483,58.52,477.91,80.55,457,125a7.28,7.28,0,0,1-2.91,3.95c-4.35,3-14.95,4.1-40.09-13.95l-.43,3-.57,4s8.85,6.91,5.43,10.95c-1.68,2-3.25.6-3.72,1.48a3.39,3.39,0,0,0-.07,1.79v0c.27,2.13,1.27,6.37,3.36,14.76,5.35,21.4,20,92.22-3.71,116.47a26.35,26.35,0,0,1-10.41,6.6h0c-5.17,1.76-13.35,3-23.61,3.89-17.12,1.44-40.06,1.77-64.55,1.49l-3.14,0c-11.27-.16-22.83-.44-34.27-.81q-7.28-.23-14.44-.5c-9.86-.37-19.49-.79-28.62-1.22l-1.88-.09C195.79,275,167.19,273,167.19,273h0c-.52-.09-20.43-3.68-12.36-17.73C163,241,204.42,5,242.71,0H379c29.3,6.33,62.6,17.69,100,37C479,37,483.1,37.68,483,47.63Z"/><path class="cls-14" d="M414,115s-62.06-42.5-96-40.75c0,0-12,.75,11,2.75,0,0,9,1,10,4,0,0-18,0-18,2s9-3,39,5c0,0,20.14,6,53.57,30Z"/><path class="cls-14" d="M413,122s-17-1-20,2-2.84-1.32,1.58-2.16,2.42-1.09,18.42-1Z"/><path class="cls-14" d="M414.71,134.43S392,128,352,138s50.28-9.51,62.64-1.76Z"/><path class="cls-15" d="M166,274s-7-7-9,16c0,0-4,10.21,4.5,16.61,0,0-1.44,8.78-.47,15.59,0,0-14-1.6,0,32.1s-.21,133.36,316.88,69.53h0S531,417,533,416c0,0-54,195.68-61,292.34,0,0,26,17.66,84,13.66,0,0,128-337,106-388s-279-61-279-61S194,247,166,274Z"/><path class="cls-10" d="M160.41,322.2c-22.58,18.19,38.34,3.21,38.34,3.21,39.76,81.41,33,103.92,33,103.92l3.17.21S235,426,237,414s-29-73-30-89S160.41,322.2,160.41,322.2Z"/><path class="cls-10" d="M497.1,698.85c-.42,1.51-.84,3-1.26,4.48Z"/><path class="cls-10" d="M497.68,696.82l-.58,2Z"/><path class="cls-10" d="M498.57,693.64l-.89,3.18C498,695.76,498.27,694.71,498.57,693.64Z"/><path class="cls-10" d="M495.84,703.33l-.49,1.73v0l-1.53,5.43c.53-1.88,1-3.68,1.53-5.43h0c0-.19.1-.38.16-.56l.33-1.2-.33,1.19Z"/><path class="cls-10" d="M501.77,682.29c0,.15-.1.34-.17.59Z"/><path class="cls-10" d="M501.6,682.88c-.12.42-.28,1-.47,1.68C501.29,684,501.44,683.45,501.6,682.88Z"/><path class="cls-10" d="M501.13,684.56l-.46,1.64C500.82,685.66,501,685.11,501.13,684.56Z"/><path class="cls-10" d="M501.86,682l-.09.33Z"/><path class="cls-10" d="M500.15,688c-.19.68-.39,1.4-.61,2.17C499.75,689.47,500,688.76,500.15,688Z"/><path class="cls-10" d="M499.54,690.19c-.29,1-.59,2.09-.88,3.12C499,692.2,499.27,691.16,499.54,690.19Z"/><path class="cls-10" d="M561,381.37h0s-3.37-.31-7.13-.95c3.66-3.79,8.85-8.8,16.12-15.41,22.81-20.74-2.15-3.73-19.75,14.69-2.93-.67-5.5-1.57-6.25-2.69-2-3-4,24-6,13-.56-3.11-9.51-3.26-22-1.88C484.09,391.61,429,405,429,405c-170,7-177-44-171-81,4.77-29.42-7.71-32.67-13-32.76q10.53-4.23,21.58-8.36C268.1,285.15,273,289.79,285,299c0,0,9.46,7.83,30.7-19.54,2.74-3.54,5.69-7.66,8.83-12.47l-2.22-.74h-.07c-.25.39-4.23,6.44-9.68,13.16C304.14,289.8,292.19,301.79,285,297c-10.54-7-14.6-13.71-15.43-15.24q4.38-1.62,8.72-3.16C291.23,274,303.83,269.78,316,266l-3.79-.63h-.06L310,265l-.45.15c-13.83,4.63-29.09,9.07-45.7,13l-1.51.35q-11,2.55-21.49,4.48l-1.42-.49c-9.53,2.29-8.53-1-4.2-5.56,5.79-6.11,17.57-14.52,18.11-14.92l-1.38-.23-.28.19c-9.61,6.59-15.29,11.38-18.33,14.87-3.73,4.27-3.52,6.57-1.76,7.77-2.1.35-4.19.68-6.25,1s-53,6.86-59.58,12.1a176.44,176.44,0,0,0,1.44-23.47c0-.78,0-1.22,0-1.22h0L166,274c-1,35-4.5,32.61-4.5,32.61l-.07.49-.13.93c2-.31,3.36-4.08,4.24-9,4.69-1,24.3-7.93,61.18-11.81,4.77-.37,10.38-.88,15.38-1.36l-1.73,4.36C207,303.14,217,303,217,303q11.83-5.21,24.46-10.35c21,.31,15.85,24.43,15.85,24.43C240.61,371.16,294,395,294,395c111,26,178,6,208-2a91.9,91.9,0,0,1,14.51-2.78h0c13.44-1.39,19.2,2.12,22.25,3.86-1.74,3-2.77,5.69-2.77,7.92,0,0-3.27,8.7-5.11,14.47h0c-1.69,5.3-2.2,8.13,2.11-.48,0,0,1.12-8.55,15.12-21.79-1.52,5.44.13,12.47,8.88,18.79,18,13-56.07,263.7-56.07,263.7l.7,4,.08.45.15.85c.07-.26.15-.52.22-.77s.19-.67.28-1C580.66,402,564,419,555,408s-4-15-4-15c11.57-5.79,12.4-8.94,11.52-10.46A239.29,239.29,0,0,1,594,364S598.86,353.45,561,381.37ZM242.71,289l3.67-3.59c5.3-.52,9.15-.92,9.15-.92-4.82,1.76-9.07,3.35-12.82,4.78ZM545,380s1.68.46,3.93,1.1c-1.64,1.76-3.2,3.52-4.63,5.26C544.8,383,545,380,545,380Zm10.41,5.57a12.12,12.12,0,0,0-4.59,3.49L547,392s-5.56,1.67,5.3-9.93c2,.57,4,1.18,5.51,1.7Zm3.72-.56.7-.52C561.1,385,561.21,385.26,559.13,385Z"/></g><g id="mad"><path class="cls-16" d="M647.36,120.29S633,127,621,127c0,0,2-8-13-4s7,15,7,15,85.71-8.42,32.36-17.71"/><path class="cls-17" d="M776.34,125.15S789,96,761,105c0,0-2-11-18-5,0,0-11-10-21,6s3,23,3,23l51.34-3.85"/><path class="cls-18" d="M662,111s26-23,40-7,16,24-12,26-9,0-36-1c0,0,10-7-8-8A118.2,118.2,0,0,0,662,111Z"/><path class="cls-19" d="M590.55,125.05s-15.44-.32,0,8.82,14.14,17,68.79,18.08S757,160,783,134c0,0,16.32-10.91-5.34-9S643.11,127.09,590.55,125.05Z"/></g><g id="Layer_12" data-name="Layer 12"><path class="cls-20" d="M805,64s62-7.77,89.93,0c0,0,6,76.29-19.12,85h-45.4S799.06,154.64,805,67.07Z"/><path class="cls-21" d="M810.87,85.84s37.78-8,78,0c0,0,1.9,57.39-23.69,59s-34.72.16-41.57-5.31S810.87,112.21,810.87,85.84Z"/><path class="cls-22" d="M810.87,85.84a221.93,221.93,0,0,1,78,0S856,93,810.87,85.84Z"/></g><g id="bord"><path class="cls-23" d="M689,190.71V924.62s-1.39,8.54,18.83,13.54,42.95,1,43.8-11,0-736.71,0-736.71S698.8,179.26,689,190.71Z"/><path class="cls-24" d="M1920,152.77v44.62l-1168.37-.07H473.08s-31.16,2.85-28-32.16c0,0-1.2-18.56,32.32-18.21l4.77,0,43.61.21C713.06,148,1401.19,150.73,1920,152.77Z"/></g><g id="stol"><path class="cls-25" d="M539,912s-6,10-29-71S449,489,383,457c0,0,79-93,100,109,0,0,39,274,77,340C560,906,568,916,539,912Z"/><path class="cls-25" d="M113,918s6,10,29-71,61-352,127-384c0,0-79-93-100,109,0,0-39,274-77,340C92,912,84,922,113,918Z"/><path class="cls-26" d="M33.5,58.5s-.57-20,16.21,0,28.79,72,66.79,220,51,155,186,151,195.44-11.5,190.22.75S498.5,459.5,358.5,461.5s-211,27-255-111S33.5,58.5,33.5,58.5Z"/></g><g id="Layer_11" data-name="Layer 11"><path class="cls-27" d="M1920,0V184.26c-87.12,0-193.75-7.14-292.46-12.95C1486.53,163,1488.18,48.5,1495.3,0Z"/><path class="cls-27" d="M791,1080H0V832C285.49,833.2,744.15,868.51,791,1080Z"/><path class="cls-28" d="M1623.9,562.16l52.34-48.9s-13.65-12.6-25-43.52-20.48-9.17-20.48-9.17S1595.45,520.57,1623.9,562.16Z"/><path class="cls-29" d="M1697,922.59s-5.41-1.37-31.83,11.72-42.36-104.89-11.63-86.57,64.16,55.77,43.46,74.85"/><path class="cls-29" d="M1785.48,937.09s2.28,48.11,12.52,59.57,29.58,10.31,31.86,4.58.37-13-10.63-30,2.66-83.43,2.66-83.43-5.68-63-36.41,49.25"/><path class="cls-30" d="M1363.32,898.15s-62.58-6.88-74,33.21,50.06,28.69,133.13,17.78,100.14-26.94,100.14-26.94,58-16-159.31-24.05"/><path class="cls-31" d="M1785.48,937.09s-14.79-113.4-3.41-137.46,70.28-134,57.33-21.76c0,0-16.37,95.07-17.51,110C1821.89,887.84,1812.79,851.18,1785.48,937.09Z"/><path class="cls-31" d="M1425.44,894.88s-47.33-18.5-71.22-9.33,9.1,12.6,9.1,12.6-59.17-1.15-43.24,24.05,48.93,3.44,130.86,2.29,87.62-34.36,87.62-34.36-94.25,11.8-113.12,4.75"/><path class="cls-32" d="M1813.93,790.47s-9.1,10.31-9.1,24.06-1.14,25.2-11.38,10.3c0,0,2.48,47-9,29.79,0,0-16,55-44.48,58.42,0,0,4.55,57.27,10.24,71s11.38,28.63,1.13,28.63-25.47,3.66-42.89-55.44h0s7.62-116.38-45.86-90h0S1699,929.07,1648.93,960c0,0,36.42,19.47,9.11,35.51s-99.94-27.9-99.94-27.9-13.69-207.48,141.55-296.55,127.93-18,127.93-18,34.14,88.2-13.65,137.46"/><path class="cls-33" d="M1829.24,612.61s-30.1-29.47-31.24-54.67,42.1-50.4-159.31-27.49a92.93,92.93,0,0,0-18.2,80.18s5.69,16,1.13,29.78,16.85,20.3,8.43,42.22c-5,13,2.44,33.83,9.33,48.66-38.78,14.8-97.84,43.64-117.76,87.34-30.6,67.1-10.37,108.15,2.14,125.33s78.52,60.71,114.93-13.74-43.24-119.13-43.24-119.13c46.66,12.6,67.14,56.13,67.14,56.13,4.55-1.15,10.24,3.43,10.24,3.43,10.24,3.44,37.55,92.79,37.55,92.79,17.07-96.22,26.4-61.87,26.4-61.87,2.51-102-12.74-116.83-12.74-116.83s-17.07-28.63-15.94-40.09c0,0,17.07,11.46,6.83-9.16s-28.45-24.06-20.48-43.53l.08-.2-.08.2s19.34,16,64.86-3.44c0,0,10.24-5.72,15.93-19.47,0,0,.46,9.2,9.9-4.56s14-39,14-39a54.15,54.15,0,0,1,2.27,45.82s23.9-9.16,2.28,27.49c0,0-6.83,9.17-5.69,28.64,0,0,38.69-36.66,23.89,47a23,23,0,0,1-8,16c-8,6.87,34.14-25.2,28.45-53.84,0,0,39.82,20.62-1.14-52.69,0,0,23.9-10.31,6.83-26.35C1848.07,657.59,1890.06,669.57,1829.24,612.61ZM1698,683.37Zm-3.41,8.34.17-.42Zm.33-.8.11-.26Zm.41-1c.06-.14.11-.27.17-.4Zm.33-.81.34-.83Zm.68-1.65,0-.05Zm.32-.78c.1-.26.2-.5.29-.72Zm.56-1.39.24-.58Zm.34-.83.1-.24Zm.26-.62c0-.11.08-.2.11-.28Z"/><path class="cls-28" d="M1624.32,663.31s10.82,26.94,61.82,23.82,22.28-48.62,22.28-48.62-91.44-17.76-84.1,24.8"/><path class="cls-34" d="M1717.21,515.56s-25-4.59-38.69-10.31-25.57,1.14-13.92,10.31c0,0-30.46-6.88-16.8,6.87,0,0-6.83,3.43-9.11,8,0,0,13.66,2.29,17.07,14.89s9.36,21.76,36,0,57.34-25.2,67.58-17.18,28.45,35.51,33,45.81,11.36,0,11.36,0,27.33-51.54-8-119.12c0,0-23.89-28.64-30.72,10.3S1741.1,516.7,1717.21,515.56Z"/><path class="cls-34" d="M1648.93,615.21s-48.93,14.11-25,48.86c0,0,8,11.85,15.93-6.48s1.14,4.59,26.17,13.75,36.42-2.29,36.42-2.29,20.48-23.73,0-36.5S1676.24,612.92,1648.93,615.21Z"/><path class="cls-34" d="M1629.59,701.12s4.55,36.66,26.17,41.24c0,0,8,1.15,6.83-4.58s8-8,8-8l6.83,9.16s-17.07,13.75-21.62,27.5-7.12,12.6-30.3,0c0,0-15.21-4.59-22,8-3,5.54-6.66,10.85-12.22,15-11.17,8.27-24,6.77-33.3,7.94-13.26,1.69-30.75,13.28-48.93,57.28a245,245,0,0,1,17.5-45.82C1556,750.05,1602.39,717.08,1629.59,701.12Z"/><path class="cls-34" d="M1505.56,889s0,14.89,3.41,22.91c0,0-26.17,11.46-86.48-17.18C1422.49,894.71,1490.77,899.29,1505.56,889Z"/><path class="cls-35" d="M1686.48,610.63s10.25-87.06,71.69-42.38C1758.17,568.25,1751.34,646.14,1686.48,610.63Z"/><path class="cls-28" d="M1645.24,643.85a22,22,0,0,1-14.41-14.15c-3.93-11.57,7.86-10.29,15.72-9s11.79-2.57,15.72,0S1676.68,636.13,1645.24,643.85Z"/><path class="cls-28" d="M1686.48,610.69c-.65-26.75,12.54-48.5,30.73-53.9,3.67-1.09,12.32-2.93,24.15,1.56,0,0,14.86,36.41-4.57,55.76C1736.79,614.11,1720.78,630,1686.48,610.69Z"/><path class="cls-28" d="M1642.08,611.78s4.82-56.13-18-44.68C1624,567.1,1615.61,620.94,1642.08,611.78Z"/><path class="cls-28" d="M1786.62,457.14s-13.65-19.48-12.52,12.6c0,0,9.11,13.74,5.69,35.51,0,0,18.21-7.29,6.83,18.69,0,0,19.34,11.09,6.83,24.83,0,0,3.51,18,6.3,6.73S1817.34,491.5,1786.62,457.14Z"/></g><g id="Layer_13" data-name="Layer 13"><path class="cls-36" d="M101.71,953.54s31.52-23.41,39.87-40.34,2.67-46.88,27.89-51.84,37.11-6.14,34.85,11.1-2.71,26.36,1.27,28.79,29.16,5.31,31.78,18.8,10.26,36.5-2.05,38.94-38.31-10-43.51-4.38-54.68,34.1-53,57.39,14.83,34.75-22.2,41.41S91.7,1016,69.94,1019.84s-59.77,16.15-36.75-32S73.91,977.6,101.71,953.54Z"/><ellipse class="cls-37" cx="175.73" cy="870.99" rx="5.67" ry="3.58" transform="translate(-126.4 35.39) rotate(-8.47)"/><ellipse class="cls-37" cx="182.68" cy="889.27" rx="5.67" ry="3.58" transform="translate(-129.02 36.62) rotate(-8.47)"/><ellipse class="cls-37" cx="160.55" cy="902.82" rx="5.67" ry="3.58" transform="translate(-131.26 33.51) rotate(-8.47)"/><ellipse class="cls-37" cx="202.85" cy="915.24" rx="5.67" ry="3.58" transform="translate(-132.63 39.87) rotate(-8.47)"/><ellipse class="cls-37" cx="225.54" cy="925.74" rx="5.67" ry="3.58" transform="matrix(0.99, -0.15, 0.15, 0.99, -133.93, 43.33)"/><ellipse class="cls-37" cx="211.09" cy="938.15" rx="5.67" ry="3.58" transform="translate(-135.91 41.34) rotate(-8.47)"/><ellipse class="cls-37" cx="61.26" cy="973.75" rx="5.67" ry="3.58" transform="matrix(0.99, -0.15, 0.15, 0.99, -142.79, 19.65)"/><ellipse class="cls-37" cx="48.16" cy="999.24" rx="5.67" ry="3.58" transform="translate(-146.69 18) rotate(-8.47)"/><ellipse class="cls-37" cx="77.75" cy="991.21" rx="5.67" ry="3.58" transform="translate(-145.18 22.27) rotate(-8.47)"/><ellipse class="cls-37" cx="117.61" cy="1035.98" rx="5.67" ry="3.58" transform="translate(-151.34 28.63) rotate(-8.47)"/><ellipse class="cls-37" cx="110.64" cy="1013.48" rx="5.67" ry="3.58" transform="translate(-148.11 27.36) rotate(-8.47)"/><path class="cls-38" d="M109.67,968.44l17.22,15.45S139.92,956.78,109.67,968.44Z"/><path class="cls-36" d="M113.5,969.84l12.13,10S135.13,961.93,113.5,969.84Z"/><ellipse class="cls-38" cx="136.88" cy="960.68" rx="7.76" ry="9.55" transform="translate(-616.63 349.23) rotate(-42.83)"/><ellipse class="cls-36" cx="136.66" cy="960.75" rx="5.27" ry="6.45" transform="translate(-616.74 349.1) rotate(-42.83)"/><path class="cls-38" d="M150.54,943s-11.76,10.2,4.38,13.23c0,0,4.72-.71,1-5.58l-3,.44-1-2.87,5.31-.79s7.91,8.48-1.87,11.75-16.9-16.19-6.27-17.78Z"/><path class="cls-36" d="M285.71,962.54s31.52-23.41,39.87-40.34,2.67-46.88,27.89-51.84,37.11-6.14,34.85,11.1-2.71,26.36,1.27,28.79,29.16,5.31,31.78,18.8,10.26,36.5-2.05,38.94-38.31-10-43.51-4.38-54.68,34.1-53,57.39,14.83,34.75-22.2,41.41-24.89-37.41-46.65-33.57-59.77,16.15-36.75-31.95S257.91,986.6,285.71,962.54Z"/><ellipse class="cls-37" cx="359.73" cy="879.99" rx="5.67" ry="3.58" transform="translate(-125.72 62.6) rotate(-8.47)"/><ellipse class="cls-37" cx="366.68" cy="898.27" rx="5.67" ry="3.58" transform="translate(-128.34 63.82) rotate(-8.47)"/><ellipse class="cls-37" cx="344.55" cy="911.82" rx="5.67" ry="3.58" transform="translate(-130.58 60.71) rotate(-8.47)"/><ellipse class="cls-37" cx="386.85" cy="924.24" rx="5.67" ry="3.58" transform="translate(-131.94 67.08) rotate(-8.47)"/><ellipse class="cls-37" cx="409.54" cy="934.74" rx="5.67" ry="3.58" transform="matrix(0.99, -0.15, 0.15, 0.99, -133.24, 70.54)"/><ellipse class="cls-37" cx="395.09" cy="947.15" rx="5.67" ry="3.58" transform="translate(-135.23 68.54) rotate(-8.47)"/><ellipse class="cls-37" cx="245.26" cy="982.75" rx="5.67" ry="3.58" transform="matrix(0.99, -0.15, 0.15, 0.99, -142.11, 46.86)"/><ellipse class="cls-37" cx="232.16" cy="1008.24" rx="5.67" ry="3.58" transform="translate(-146.01 45.21) rotate(-8.47)"/><ellipse class="cls-37" cx="261.75" cy="1000.21" rx="5.67" ry="3.58" transform="translate(-144.5 49.48) rotate(-8.47)"/><ellipse class="cls-37" cx="301.61" cy="1044.98" rx="5.67" ry="3.58" transform="translate(-150.66 55.84) rotate(-8.47)"/><ellipse class="cls-37" cx="294.64" cy="1022.48" rx="5.67" ry="3.58" transform="translate(-147.42 54.57) rotate(-8.47)"/><path class="cls-38" d="M293.67,977.44l17.22,15.45S323.92,965.78,293.67,977.44Z"/><path class="cls-36" d="M297.5,978.84l12.13,10S319.13,970.93,297.5,978.84Z"/><ellipse class="cls-38" cx="320.88" cy="969.68" rx="7.76" ry="9.55" transform="translate(-573.68 476.73) rotate(-42.83)"/><ellipse class="cls-36" cx="320.66" cy="969.75" rx="5.27" ry="6.45" transform="translate(-573.79 476.6) rotate(-42.83)"/><path class="cls-38" d="M334.54,952s-11.76,10.2,4.38,13.23c0,0,4.72-.71,1-5.58L337,960l-1-2.87,5.31-.79s7.91,8.48-1.87,11.75-16.9-16.19-6.27-17.78Z"/><path class="cls-39" d="M455.2,1010.84s20.26-30.29,26.55-33.42-3.92,8.35,8.45,21.14c0,0,3.73-2.5,3-5.49s2.51-7.47,20.13,15.63c0,0,5.83,3.84-6.19,16.81,0,0,15.67,15.14,14.62,28.59s-36.21,18.38-35.82,17.76-14.22,4-25.91-23.7c0,0-26.14,19.61-33.44,9.8s-15.24-42.15,4.71-44.94S455.2,1010.84,455.2,1010.84Z"/><path class="cls-39" d="M498.92,961.08s5.62,22.88,12,20.25c0,0,4.22-.51,3.14-7.1s9.93,2.83,16.67,17c0,0,.37,13.1,22.73-5.58s24.87-15.08,24.87-15.08,33.86,9.62,41.41-3.84,12.84-40.6-10.94-37.93-15.05-12.65-15.05-12.65,15.18-47.33-44.25-18c0,0-15.92,4.87-9.31,26.46S545.34,920.14,498.92,961.08Z"/><ellipse class="cls-40" cx="1742.17" cy="74.76" rx="5.7" ry="6.92"/><ellipse class="cls-40" cx="1743.9" cy="95.03" rx="4.96" ry="6.2"/><ellipse class="cls-41" cx="1745.14" cy="71.89" rx="5.7" ry="6.92"/><ellipse class="cls-41" cx="1746.88" cy="92.17" rx="4.96" ry="6.2"/><path class="cls-40" d="M1540.81,60s19-10.74,41.08-4.89A17.7,17.7,0,0,1,1583.22,67a41.64,41.64,0,0,0-25.72,2l1.67,8.18s7.69-4.89,15-4.11a42,42,0,0,1,2,10.92s-10.18-.81-13.94,5.68c0,0,4.59,18.23,4.59,30,0,0-5.35,3.77-18.37,4.72C1548.49,124.41,1551.83,104,1540.81,60Z"/><ellipse class="cls-40" cx="1600.87" cy="85.25" rx="17.53" ry="25.03"/><ellipse class="cls-40" cx="1631.62" cy="104.79" rx="18.06" ry="21.24"/><path class="cls-40" d="M1649.49,73.65s6,23.88,5,36.4c0,0,9.68,8.42,25.38-13.44S1656.5,69.63,1649.49,73.65Z"/><path class="cls-40" d="M1683.78,68.89a21.13,21.13,0,0,0,3,8.4s12.52-5.19,14.74-2.67c0,0-17.44,10.78-15.55,24.75,0,0,23.43-6,32.32,2.22,0,0,4-10.79,2.81-13s-21.37-1.6-21.37-1.6,17.48-11.41,18.29-18.08C1718,68.89,1720.44,61.28,1683.78,68.89Z"/><path class="cls-41" d="M1546.08,55.3s19-10.73,41.08-4.89a17.7,17.7,0,0,1,1.33,11.93,41.6,41.6,0,0,0-25.71,2l1.67,8.18s7.68-4.89,15-4.1a42.12,42.12,0,0,1,2,10.92s-10.18-.82-13.94,5.67c0,0,4.59,18.23,4.59,30,0,0-5.35,3.77-18.37,4.72C1553.76,119.73,1557.1,99.32,1546.08,55.3Z"/><ellipse class="cls-41" cx="1606.15" cy="80.57" rx="17.53" ry="25.03"/><ellipse class="cls-41" cx="1636.9" cy="100.12" rx="18.06" ry="21.24"/><path class="cls-41" d="M1654.76,69s6,23.88,5,36.41c0,0,9.68,8.42,25.38-13.45S1661.77,65,1654.76,69Z"/><path class="cls-41" d="M1689.05,64.21a21.33,21.33,0,0,0,3,8.4s12.52-5.19,14.74-2.67c0,0-17.43,10.78-15.55,24.75,0,0,23.43-6,32.32,2.22,0,0,4-10.79,2.82-13S1705,82.29,1705,82.29s17.48-11.41,18.28-18.08C1723.24,64.21,1725.72,56.61,1689.05,64.21Z"/><ellipse class="cls-35" cx="1606.05" cy="78.87" rx="8.2" ry="12.07"/><ellipse class="cls-35" cx="1637" cy="99.34" rx="9.62" ry="10.52"/><path class="cls-35" d="M1665.06,76.7s21.71,6.14,3,17.09Z"/><path class="cls-41" d="M1782.51,36.12h-4.4c-5.45,74.14,0,121.88,0,121.88,39.66-19.09,104.61-18.5,104.61-18.5-.25-3.09-.43-6.3-.56-9.6-16,.28-66.56,2.33-99.59,16.86C1782.57,146.76,1777.16,103.45,1782.51,36.12Z"/><path class="cls-41" d="M1822.73,39.22l-.17-3.82s3.59-.85,7.66-1.47a86.93,86.93,0,0,0-12.12,2.19l.17,4.18c5.41.67,6.11,2.42,3.16,4C1828.76,42.68,1830.06,40.05,1822.73,39.22Z"/><path class="cls-41" d="M1798.35,42l-.91-5.92h-4.57l1,7.27c5.47.3,7.81,2.84,5.81,4.84C1807.51,46.79,1806,42.42,1798.35,42Z"/><path class="cls-41" d="M1851.48,36.35,1850,31.11s6.23-.86,10.79-1.28c-1.92-.42-15.26,1.59-15.26,1.59l1.49,5.74c6,.34,4.75,5.58-.06,8.5C1855.06,44.28,1859.09,36.74,1851.48,36.35Z"/><path class="cls-41" d="M1874.29,35.4l-1.49-6.2a83.64,83.64,0,0,1,11.53-1.36,71.16,71.16,0,0,0-16,1.49l1.49,6.79c4.51-.68,4.41,6.13.8,9.39C1878.18,45.64,1880.23,34.58,1874.29,35.4Z"/><path class="cls-42" d="M1861.89,36.64s-10.9,3.46,0,9.3c3.83,2.05,6.8,1.32,8.74-.43a10.24,10.24,0,0,1-4.27-1.13c-10.91-5.34,0-8.5,0-8.5l-1-6.21a21.56,21.56,0,0,0-4.58.16l.11,0Z"/><path class="cls-42" d="M1835.12,34v4.89s-10.9,5,1,8.16A14,14,0,0,0,1847,45.66a15.82,15.82,0,0,1-6.38-.24c-11.9-2.86-1-7.46-1-7.46V33.49c-2.26-.43-6-.08-9.37.44A18,18,0,0,1,1835.12,34Z"/><path class="cls-42" d="M1786,41.27s-7.8,9.8,4.78,9.37c4.78-.16,7.65-1.18,8.88-2.41a28.88,28.88,0,0,1-4.42.44c-12.57.39-4.77-8.56-4.77-8.56V35.4h-7.94l-.06.72H1786Z"/><path class="cls-42" d="M1892.63,28.24a39.51,39.51,0,0,0-8.3-.4,27.11,27.11,0,0,1,3.84.45s-7.7,58.55-6,101.61c3.2-.06,5-.05,5-.05C1883.71,90.26,1892.63,28.24,1892.63,28.24Z"/><path class="cls-42" d="M1809.92,40.91s-7,7.22,3.39,5.65a27,27,0,0,0,8.12-2.26c-1.09.24-2.31.45-3.66.64-10.41,1.43-3.39-5.16-3.39-5.16V35.4h-17.05l.11.72h12.48Z"/><path class="cls-42" d="M1888.17,28.29a27.11,27.11,0,0,0-3.84-.45,83.64,83.64,0,0,0-11.53,1.36l1.49,6.2c5.94-.82,3.89,10.24-3.66,10.11-1.94,1.75-4.91,2.48-8.74.43-10.9-5.84,0-9.3,0-9.3l-1-6.79-.11,0c-4.56.42-10.79,1.28-10.79,1.28l1.48,5.24c7.61.39,3.58,7.93-4.52,9.31a14,14,0,0,1-10.85,1.42c-11.89-3.13-1-8.16-1-8.16V34a18,18,0,0,0-4.9-.1c-4.07.62-7.66,1.47-7.66,1.47l.17,3.82c7.33.83,6,3.46-1.3,5.08a27,27,0,0,1-8.12,2.26c-10.41,1.57-3.39-5.65-3.39-5.65V36.12h-12.48l.91,5.92c7.63.38,9.16,4.75,1.35,6.19-1.23,1.23-4.1,2.25-8.88,2.41-12.58.43-4.78-9.37-4.78-9.37V36.12h-3.53c-5.35,67.33.06,110.64.06,110.64,33-14.53,83.61-16.58,99.59-16.86C1880.47,86.84,1888.17,28.29,1888.17,28.29ZM1850,108.86c-3.56,0-6.45-7.9-6.45-17.65s2.89-17.65,6.45-17.65,6.44,7.91,6.44,17.65S1853.56,108.86,1850,108.86Z"/><ellipse class="cls-42" cx="1850" cy="91.21" rx="6.45" ry="17.65"/></g></svg>