<svg xmlns="http://www.w3.org/2000/svg" width="1920" height="1080" viewBox="0 0 1920 1080"><defs><style>.cls-1{isolation:isolate;}.cls-2{fill:#d0e3d7;}.cls-3{fill:#c4d4c8;}.cls-4{fill:#a7998a;}.cls-5{fill:#968a7b;}.cls-6{fill:#782c28;}.cls-7{fill:#d43040;}.cls-8{fill:#eeb373;}.cls-9{fill:#d98d53;}.cls-10{fill:#4d403e;}.cls-11{fill:#e0ab68;}.cls-12{fill:#ca844d;}.cls-13{fill:#382d2b;}.cls-14{fill:#f6a200;}.cls-15{fill:#e79300;}.cls-15,.cls-17{opacity:0.51;}.cls-16,.cls-23{fill:#0ea017;}.cls-17{fill:#1b8e21;}.cls-18{fill:#ede1d2;}.cls-19,.cls-21{fill:#c61341;}.cls-20{fill:#991636;}.cls-21,.cls-23,.cls-26,.cls-28,.cls-30,.cls-33,.cls-34,.cls-35,.cls-36,.cls-37,.cls-38{mix-blend-mode:multiply;}.cls-21{opacity:0.25;}.cls-22{fill:#d32d4b;}.cls-23,.cls-26,.cls-30,.cls-34{opacity:0.5;}.cls-24{fill:#e6731c;}.cls-25{fill:#f6a017;}.cls-27,.cls-28{fill:#e6d9ac;}.cls-28{opacity:0.52;}.cls-29,.cls-30{fill:#c97c3d;}.cls-31{fill:#e2a65c;}.cls-32,.cls-34{fill:#d39e64;}.cls-33,.cls-37{opacity:0.49;}.cls-35,.cls-36,.cls-37,.cls-38{fill:#caad84;}.cls-35{opacity:0.54;}.cls-36{opacity:0.66;}.cls-38{opacity:0.44;}.cls-39{fill:#edbf81;}</style></defs><g class="cls-1"><g id="Layer_3" data-name="Layer 3"><path class="cls-2" d="M0,0V1080H1920V0Z"/><polygon class="cls-3" points="249.18 0 224.9 640.16 222.48 703.82 221.16 738.65 208.91 1061.67 36.46 1055.13 48.25 744.27 49.57 709.45 51.99 645.79 76.49 0 249.18 0"/><polygon class="cls-3" points="580.19 0 556.31 629.38 553.9 693.04 552.58 727.87 539.44 1074.21 366.99 1067.67 379.67 733.49 380.99 698.66 383.4 635 407.49 0 580.19 0"/><polygon class="cls-3" points="933.59 0 910.14 617.86 907.73 681.53 906.41 716.36 892.61 1080 719.91 1080 733.49 721.98 734.82 687.15 737.23 623.49 760.89 0 933.59 0"/><polygon class="cls-3" points="1285.38 0 1262.37 606.4 1259.96 670.07 1258.64 704.9 1244.4 1080 1071.71 1080 1085.72 710.52 1087.04 675.69 1089.46 612.03 1112.68 0 1285.38 0"/><polygon class="cls-3" points="1627.58 0 1605 595.25 1602.58 658.92 1601.26 693.75 1586.61 1080 1413.91 1080 1428.35 699.37 1429.67 664.54 1432.08 600.88 1454.88 0 1627.58 0"/><polygon class="cls-3" points="1920 0 1920 1080 1776.9 1080 1791.79 687.55 1793.11 652.72 1795.52 589.06 1817.87 0 1920 0"/></g><g id="Layer_7" data-name="Layer 7"><polygon class="cls-4" points="1920 621 1920 712.23 1791.79 716.09 1601.26 721.84 1428.35 727.05 1258.64 732.18 1085.72 737.39 906.41 742.81 733.49 748.02 552.58 753.48 379.67 758.69 221.16 763.48 48.25 768.69 0 770.14 0 678.94 51.99 677.37 224.9 672.15 383.4 667.36 556.31 662.15 737.23 656.69 910.14 651.47 1089.46 646.06 1262.37 640.84 1432.08 635.73 1605 630.5 1795.52 624.76 1920 621"/><polygon class="cls-5" points="1920 679.97 1920 1080 0 1080 0 737.89 49.57 736.4 222.48 731.18 380.99 726.39 553.9 721.18 734.82 715.72 907.73 710.51 1087.04 705.09 1259.96 699.88 1429.67 694.75 1602.58 689.54 1793.11 683.79 1920 679.97"/></g><g id="Layer_11" data-name="Layer 11"><path class="cls-6" d="M575.15,142.07s9.59-9.59,2.72-18.33S543.3,114.15,575.15,142.07Z"/><path class="cls-6" d="M649.81,256.8S656,251,658,245s22-13,22-5S654.62,282.59,649.81,256.8Z"/><path class="cls-6" d="M154.37,249.8c4.17,1.93,62.31,92.18,138.22.68S160.53,221,141.3,125,278.12,55.77,326.85,83.29s-7.08,48.17-16.32,41.92-97.09-62.78-118.26-19.15,123.81,52.39,146.29,80.61,12.37,89.83-65.6,125S114.74,280.92,122.52,267.7,145.05,245.48,154.37,249.8Z"/><path class="cls-6" d="M369,179.26s-3.72-17.92,18.64-14.67-11.18,79.83,37.26,71.68,15.79-74.1,32.12-72.07,36.83-6.12,25.65,60.67S400.65,277,382,262.34,369,179.26,369,179.26Z"/><path class="cls-6" d="M558.31,146.67c6.59,9.78,19.15-7.4,19.15-7.4s7.21-8.89-38.92-26.81-82.36,48.88-49.41,97.75,79.06,11.4,86.91-1.4S556.66,189,556.66,195.55c0,3.84-17.21,16.19-32.33,12.61A18.43,18.43,0,0,0,527,198.5c0-9.11-6.27-16.5-14-16.5a12.56,12.56,0,0,0-8.16,3.11,85.23,85.23,0,0,1-2.53-15.63C497.36,106,558.31,146.67,558.31,146.67Z"/><path class="cls-6" d="M644.73,204.89s-69.36-24.23-48.39,36,60.91,18,59.25,11.68,26.47-6.33,22.13,8-39.42,62.09-83.75,23-26.28-112.75,22.92-106.9S661.38,193,661.38,193,653.6,212.7,644.73,204.89Z"/><path class="cls-6" d="M714,150.87s-33.15-10.94-34.19,3.78-6.37,98.2,18.38,109.28,84.18,1.25,87.25-3.66,9.41-30.25-17-23.41a193.23,193.23,0,0,1-51.27,5.66s-8.4-18.07-4.27-22.29,22.16-2.13,24.71-6.89,3.29-17.87-10.26-17-25.49,2-23.43-9.19l2.07-11.22s52-.56,56.73-8,6.05-23.75-2.65-22S728.61,153.5,714,150.87Z"/><path class="cls-6" d="M849.28,147.06s-25-24-33.09,2.69,23.21,20.12,49.56,36.41,26.36,55.39,14.83,65.16-52.71,19.55-74.13-1.63,9.74-24.11,9.74-24.11,43,24.11,44.62-3.58-51.44-30.1-59.49-40.3-27.81-44.41,8.43-60.7S902,153.58,849.28,147.06Z"/><path class="cls-6" d="M942.24,131s-21.58-27-33.17-1.67,20.31,23,44.26,42.58,18.7,58.35,6,66.53S904.43,250.87,886,227.07s12.88-22.62,12.88-22.62,39.36,29.53,44.71,2.3-47-36.58-53.57-47.74-21.62-47.67,16.48-59.07S993.61,144.32,942.24,131Z"/><path class="cls-6" d="M1028.08,204.71S1009.8,212.24,1044,67.16c0,0,8.75-26.72,30.94,11.14C1074.93,78.3,1060.87,199.58,1028.08,204.71Z"/><ellipse class="cls-6" cx="1023.89" cy="233.4" rx="19.77" ry="14.66"/><path class="cls-7" d="M182.86,234.49c4.07,1.93,60.78,92.18,134.83.68S188.87,205.68,170.12,109.7,303.57,40.47,351.11,68s-6.91,48.18-15.92,41.92S240.48,47.13,219.83,90.76s120.78,52.39,142.71,80.61,12.06,89.83-64,125S144.2,265.61,151.8,252.4,173.77,230.17,182.86,234.49Z"/><path class="cls-7" d="M392.2,164s-3.63-17.92,18.18-14.66S399.47,229.11,446.73,221s15.4-74.1,31.33-72.08,35.93-6.12,25,60.67-80,52.13-98.15,37.47S392.2,164,392.2,164Z"/><path class="cls-7" d="M576.9,131.37s-59.45-40.73-54.63,22.81,53,32.58,53,26.06,26.56.47,18.91,13.27-52.65,50.26-84.79,1.39,3.22-115.66,48.21-97.74,38,26.8,38,26.8S583.33,141.14,576.9,131.37Z"/><path class="cls-7" d="M661.2,189.58s-67.65-24.22-47.2,36,59.41,18,57.79,11.68,25.82-6.33,21.59,8-38.45,62.09-81.7,23S586.05,155.55,634,161.4s43.4,16.24,43.4,16.24S669.85,197.4,661.2,189.58Z"/><path class="cls-7" d="M728.94,135.57s-32.33-10.94-33.34,3.77-6.21,98.21,17.93,109.29,82.11,1.24,85.11-3.66,9.18-30.26-16.55-23.42a184.32,184.32,0,0,1-50,5.67s-8.18-18.07-4.16-22.3S749.53,202.8,752,198s3.21-17.88-10-17-24.87,2-22.85-9.18l2-11.22s50.74-.57,55.34-8,5.9-23.75-2.58-22S743.17,138.2,728.94,135.57Z"/><path class="cls-7" d="M860.88,131.76s-24.39-23.95-32.28,2.69,22.64,20.11,48.35,36.4,25.71,55.39,14.46,65.17S840,255.56,819.1,234.39s9.5-24.12,9.5-24.12,41.92,24.12,43.53-3.58S822,176.6,814.1,166.4,787,122,822.32,105.69,912.3,138.27,860.88,131.76Z"/><path class="cls-7" d="M951.56,115.66s-21-27-32.35-1.68,19.81,23,43.17,42.59,18.24,58.35,5.82,66.53-53.52,12.47-71.46-11.33,12.56-22.63,12.56-22.63,38.4,29.54,43.62,2.3-45.81-36.57-52.26-47.74S879.57,96,916.74,84.64,1001.67,129,951.56,115.66Z"/><path class="cls-7" d="M1040.3,192.4s-17.83,7.54,15.52-137.55c0,0,8.53-26.72,30.18,11.15C1086,66,1072.29,187.28,1040.3,192.4Z"/><ellipse class="cls-7" cx="1031.21" cy="225.1" rx="19.28" ry="14.66"/></g><g id="Layer_14" data-name="Layer 14"><path class="cls-8" d="M1851.14,858c-97,63.09-223.44-4.79-223.44-4.79l109.42-7.43,8.26-.56s122.46-38.33,71.57-123c-28.64-47.65-63.65-88.7-77.7-114.42-10.91-20-9.18-30.7,18-28.1,62.11,6,89.94,56.26,89.94,56.26s8.2-28.23,24.38,10.64S1948.15,794.94,1851.14,858Z"/><path class="cls-9" d="M1877.38,751c-19.88,91-74.15,132.84-133.29,117.53-1.75-.46-3.39-.9-4.92-1.35-31.59-9.22-17.09-16.94-2.05-21.39l8.26-.56s39.22-12.27,64-38.27c19-20,29.62-48,7.53-84.71-28.64-47.65-63.65-88.7-77.7-114.42C1787.81,626,1889.94,693.47,1877.38,751Z"/><path class="cls-10" d="M1794.68,850.84c-18.8,14.51-38.75,17.61-55.51,16.36-31.59-9.22-17.09-16.94-2.05-21.39l8.26-.56s39.22-12.27,64-38.27C1822.36,810.37,1823.28,828.79,1794.68,850.84Z"/><path class="cls-11" d="M1474.23,833.27s-107.35,43.13-54.87,66.29S1638.83,844.45,1474.23,833.27Z"/><path class="cls-11" d="M1271.46,813.31s-1.59,75.07-13.52,106.22-24.65,68.68,2.39,63.88,42.14-14.37,53.27-52.7S1368.47,755.81,1271.46,813.31Z"/><path class="cls-12" d="M1271.22,820.78s-.56-136,14.55-160,92.93,31.79,40.11,225.13C1325.88,885.9,1319.49,766.76,1271.22,820.78Z"/><path class="cls-8" d="M1617.1,672.84c-255-224.5-346.16-91.28-346.16-91.28A222.83,222.83,0,0,1,1246.35,628c-16.24,23.21-4.38,63.37,10.36,36.1,0,0,13.7-23.55,14.23-13s-17.77,22.5-10.61,36.87,24.15,4.33,24.15,4.33,22.94,78.65,85.34,105.2c-6.37,12.84-16.18,38-26.8,85.34-18.29,81.46-51.68,95.83-46.91,118.19s48.5,17.57,70-10.38C1381.14,971,1417,878,1437,824.12c43,18.45,77,35.51,77,35.51s-27,68.68,42.94,93.44c0,0-42.94,12-46.12,32.74s15.1,39.93,53.27,30.35,48.58-8.9,73.19-20S1872.1,897.35,1617.1,672.84Z"/><path class="cls-13" d="M1341.47,280.69s-31.68-17.64-47.13-43.53-59.17,51-21,103.59S1401.65,290.2,1341.47,280.69Z"/><path class="cls-9" d="M1749.38,802.43c-38.24-154.25-250.27-211.85-212.61-273.79,0,0,40,3.55,5.84-22,0,0-16.41-9.72.54-57.18,16.88-47.24-117.54-208.16-217.77-143.68-2-3.93-6.05-6.25-12.57-6-39.45,1.59-63,57.54-63.32,58.42a72,72,0,0,0-8.2,21.94,80.92,80.92,0,0,0-1.54,15.65c-.1,41.36,3.88,71.53-5.67,80s198-32.25,205.16,165c0,0-15.11,62.29-42.94,28,0,0-27.83-13.58-27.83,83,0,0,4.77,26.35-12.72,81.45.78-1.32,43.9-74.83,62.82,39.15,0,0,31-55.91,44.53-100.63,0,0,20.67,16,39.75,15.17s12.73,12-2.38,13.58c0,0-13.5,6.62,26.64,7.71,0,0,33.39-107.49,125-91.14,0,0-101.59,22.74-100.79,124.16s19.88,105.42,103.37,111c82.53,5.53-33,49.28-35.73,50.3C1622.09,1001.71,1787.27,955.25,1749.38,802.43Z"/><path class="cls-14" d="M1409.82,610.46s-26.24,33.54-136-12c-71.42-29.63-96.69-53.84-86.77-68.24,5.31-7.73,20.75-12.63,44.63-14,68.38-4,169.37,3.2,169.37,3.2s23.3-1.53,36.8,8.25C1452,537.91,1455.41,560.58,1409.82,610.46Z"/><path class="cls-15" d="M1409.82,610.46s-26.24,33.54-136-12c-71.42-29.63-96.69-53.84-86.77-68.24,28,22.73,143,108.81,202.07,41.09,18.38-21.06,34.63-35,48.73-43.66C1452,537.91,1455.41,560.58,1409.82,610.46Z"/><path class="cls-10" d="M1280.2,523.41s57.26,69.48,120.87-4c0,0,58.84,4,37.37,51.11s80.32-70.28-26.24-97.43-139.15-50.32-178.12-16-21.47,100.63,13.52,88.65S1280.2,523.41,1280.2,523.41Z"/><path class="cls-10" d="M1458.32,295s-16.69-8.78-67.59-12.78-54.07-27.15-57.25-11.18,9.54,14.38,9.54,14.38-21.47-8-48.5,3.19-64.41,12.78-40.56,21.57,23.06,10.38,33.4,7.18c0,0-18.29,16,8.75,39.14s37.37-21.57,110.53-37.54,61.95,57.39,103.33,120.93c0,0,14.35,46.78,31,14.84,0,0,57.25-136.57,32.6-185.28s-21.24-47-67.47-4C1506.15,265.49,1484.56,289.41,1458.32,295Z"/><path class="cls-10" d="M1514.82,519.93s13.52,10.38,29.42,8.79c0,0,49.3,68.68,108.94,115s101,142.15,97.81,164.51c0,0-22.27-103.82-140-91.84,0,0-40.56,12-12.73-44.72,0,0,15.91-13.93-83.49-.57,0,0-50.89,21.33-23.86-96.06,0,0,8.75-39.93,13.52-39.14S1526,543.89,1514.82,519.93Z"/><path class="cls-16" d="M1472.24,587.87c-11.79-1.87-20.24-3.14-26-3.87h0c-35.11-4.5,30.32,10.78,44.68,27.26,4.85,5.56,6,8.84,5.17,10.67-2,4.49-15.69.44-15.69.44s-14.56-14.32-14.74-6.33c-.14,5.79-6.91.5-20.57-10.52,5.88,8.68,12.61,18.13,20.4,23.25,15,9.86-20.38,6.88-46.14-29.71,0,0,.37-10.8,6.21-19.31a22.16,22.16,0,0,1,12.87-9.22,15.32,15.32,0,0,1,4.32-.67c13.42-1.93,54-6.77,63.27,3.86a42.46,42.46,0,0,0,5,4.67C1524.8,589.65,1546,599.61,1472.24,587.87Z"/><path class="cls-17" d="M1496.1,621.93c-2,4.49-15.69.44-15.69.44s-14.56-14.32-14.74-6.33c-.14,5.79-6.91.5-20.57-10.52,5.88,8.68,12.61,18.13,20.4,23.25,15,9.86-20.38,6.88-46.14-29.71,0,0,.37-10.8,6.21-19.31,9.7,11.06,28,30.62,34.34,28.31C1467.75,605.2,1479.44,602.34,1496.1,621.93Z"/><path class="cls-17" d="M1472.24,587.87c-11.79-1.87-20.24-3.14-26-3.87,9.71-2.78,40.71-10.63,64.78-5.61C1524.8,589.65,1546,599.61,1472.24,587.87Z"/><path class="cls-13" d="M1246.35,448.08s-9.88-10.12,21.13-11.72,62.73,4.28,55.62,11.72-25.6,38.92-38.62,36S1272.12,488.56,1246.35,448.08Z"/><path class="cls-13" d="M1337.21,428.18s1.54-44.46,42.15-57.3,76.41,20.65,60.56,17.5-41.74-20.74-70-.65S1350.91,444.49,1337.21,428.18Z"/><path class="cls-13" d="M1269.07,425.37c-9.16,16.08-3.78-20.77-24.39-42q-1.71-1.75-3.39-3.18a71.65,71.65,0,0,1,2.77-10.12C1267,387.34,1269.07,425.37,1269.07,425.37Z"/><path class="cls-13" d="M1547.38,244.69s-3.18-14.38-31.8,51.91c0,0-10.34,23.16-11.14,43.92,0,0,16.7-14.37,16.7,16.78,0,0,0,14.37,1.59,20h0s20.68-3.19,8,34.34,25.45-1.6,36.58-75.07S1547.38,244.69,1547.38,244.69Z"/></g><g id="Layer_8" data-name="Layer 8"><path class="cls-6" d="M427.23,338.91a37.9,37.9,0,0,1,9,.81,4.2,4.2,0,0,1,2.28,1.37,3.51,3.51,0,0,1,.86,2.32,3.8,3.8,0,0,1-.67,2,5.38,5.38,0,0,0-1,2.27,10.73,10.73,0,0,0,1.72,4.43c.74,1.3,1.44,2,2.1,2a1.76,1.76,0,0,0,1.24-.6,13.57,13.57,0,0,0,1.57-2.13,6.33,6.33,0,0,0,1.17-3,2.75,2.75,0,0,0-.14-1,14.31,14.31,0,0,0-1-1.66,4.1,4.1,0,0,1-.61-2.38q0-4.35,9.22-4.35c3.48,0,5.73.21,6.78.62a3.28,3.28,0,0,1,1.64,1.46,4.44,4.44,0,0,1,.65,2.31,3.38,3.38,0,0,1-.75,2.38,5.12,5.12,0,0,1-2.63,1.23,6.39,6.39,0,0,0-3,1.68,60.83,60.83,0,0,0-4.64,5.86,42.44,42.44,0,0,0-5.1,8.33,23.68,23.68,0,0,0-1,8c0,3,.09,5.73.27,8.27a10.13,10.13,0,0,0,.57,3.25,4.73,4.73,0,0,0,1.75,1.79,4.31,4.31,0,0,1,2.2,3.66q0,5.22-12.11,5.23a34.94,34.94,0,0,1-9.4-1.23q-3.73-1-3.74-4.12a3.53,3.53,0,0,1,2.29-3.42,3.67,3.67,0,0,0,2.14-2q1-2.65,1-12.54a18.05,18.05,0,0,0-.49-4.79,19.78,19.78,0,0,0-2.1-4.45,95.38,95.38,0,0,0-7-10.19,9.17,9.17,0,0,0-3-2.65,10.13,10.13,0,0,1-2.47-1.43,3.5,3.5,0,0,1-.84-2.46q0-2.58,3-3.71T427.23,338.91Z"/><path class="cls-6" d="M476.15,353.88a14.25,14.25,0,0,1,9.67,3.65,18.79,18.79,0,0,1,4.78,6.81,23,23,0,0,1,1.87,9.15,19.12,19.12,0,0,1-6,14.2,18.27,18.27,0,0,1-13.11,5.58A14.59,14.59,0,0,1,461.72,388q-4.35-5.09-4.34-13.24,0-9.07,5.3-14.85A17.56,17.56,0,0,1,476.15,353.88Zm-2.41,8.88a2.43,2.43,0,0,0-2.13,1.25,6.17,6.17,0,0,0-.8,3.33,40,40,0,0,0,.68,6.29,58.3,58.3,0,0,0,1.61,7.06c.63,2.1,1.64,3.15,3,3.15,1.78,0,2.68-1.45,2.68-4.34a45.91,45.91,0,0,0-.68-7.35,36.28,36.28,0,0,0-1.64-6.69C475.84,363.71,474.92,362.81,473.74,362.76Z"/><path class="cls-6" d="M511.15,356.11V377q0,6.69,3.46,6.69a2.83,2.83,0,0,0,1.72-.63,3.5,3.5,0,0,0,1.18-1.56c.44-1.23.66-4,.66-8.23a73,73,0,0,0-.33-8.62,3.27,3.27,0,0,0-.42-1.4,4.49,4.49,0,0,0-1.15-1,3.45,3.45,0,0,1-1.72-2.93q0-2.38,3-3.31a36.52,36.52,0,0,1,11-1.77c2,0,3,1.38,3,4.12,0,.28,0,.86,0,1.73q-.06,1.85-.09,4.5v17c0,.87.59,1.66,1.75,2.38a3,3,0,0,1,1.48,2.69q0,3.46-6.42,5.35A25.76,25.76,0,0,1,521,393a3.31,3.31,0,0,1-2-.43,2.23,2.23,0,0,1-.62-1.65c-.1-1.59-.48-2.39-1.15-2.39a1.07,1.07,0,0,0-.66.22c-.2.14-.81.66-1.84,1.55a9.75,9.75,0,0,1-6.53,2.66q-5.79,0-8.17-4.27-2-3.59-2-12c0-2.11,0-3.9,0-5.39v-1.77a18.43,18.43,0,0,0-.47-4.86,4.51,4.51,0,0,0-1.7-2.45,5.54,5.54,0,0,1-1.49-1.23,2.21,2.21,0,0,1-.32-1.27q0-2.93,3.46-3.88a43.78,43.78,0,0,1,11.81-1.66C510.56,354.18,511.15,354.83,511.15,356.11Z"/><path class="cls-6" d="M569.05,353.92a14.31,14.31,0,0,1,9.45,3.42,10.17,10.17,0,0,1,3.89,8.12,7.94,7.94,0,0,1-1.81,5.42,5.17,5.17,0,0,1-4.06,2,4.06,4.06,0,0,1-3.77-2.31,21.63,21.63,0,0,1-1.14-3.73c-.55-2.15-1.58-3.23-3.11-3.23a3.26,3.26,0,0,0-2.78,1.85,8.47,8.47,0,0,0-1.13,4.54,13.61,13.61,0,0,0,2.59,8.19,6.33,6.33,0,0,0,5.3,2.88,8.38,8.38,0,0,0,2.53-.32,13.54,13.54,0,0,0,2.68-1.33,1.69,1.69,0,0,1,.94-.27,2.19,2.19,0,0,1,1.8,1.23,5.2,5.2,0,0,1,.79,2.89,7.26,7.26,0,0,1-1.12,3.63,11.85,11.85,0,0,1-2.92,3.33,14.53,14.53,0,0,1-9.25,3.08,14,14,0,0,1-10.57-4.62q-5.61-5.85-5.6-14.89,0-8.68,5.21-14.38A15.73,15.73,0,0,1,569.05,353.92Z"/><path class="cls-6" d="M601.55,353.88a12.62,12.62,0,0,1,8.89,3.38,9.93,9.93,0,0,1,2.69,4.14,21.21,21.21,0,0,1,.77,6.4l-.06,5.73q0,6,.66,7.74a2.49,2.49,0,0,0,.64,1.07,3.32,3.32,0,0,0,1.26.43c.64.12,1,.66,1,1.61a7.74,7.74,0,0,1-1.16,3.85,10.93,10.93,0,0,1-3,3.34,7.8,7.8,0,0,1-4.73,1.7,5.72,5.72,0,0,1-5-2.77c-.42-.67-.81-1-1.18-1a2.73,2.73,0,0,0-1.59,1,9.78,9.78,0,0,1-6.84,2.81,9.3,9.3,0,0,1-6.39-2.16A9.85,9.85,0,0,1,585,387.4a12.57,12.57,0,0,1-.93-4.79,10.82,10.82,0,0,1,2.53-7.08q3.94-4.84,11.81-4.88a3.57,3.57,0,0,0,2.2-.44,3.12,3.12,0,0,0,.45-2.06,19,19,0,0,0-.66-5.91c-.45-1.21-1.17-1.82-2.17-1.82a2.27,2.27,0,0,0-1.62.69,12.37,12.37,0,0,0-1.76,2.54c-1.79,3.25-3.65,4.88-5.6,4.88a3,3,0,0,1-2.41-1.11,4.44,4.44,0,0,1-.93-2.93A6.83,6.83,0,0,1,587,360.8a11.19,11.19,0,0,1,3.14-3.23A20,20,0,0,1,601.55,353.88Zm-2,22.27a2.8,2.8,0,0,0-2.3,1.38,6.39,6.39,0,0,0-.29,6.29,2.09,2.09,0,0,0,1.84,1.14q2.41,0,2.41-5.2a7.65,7.65,0,0,0-.35-2.84A1.37,1.37,0,0,0,599.53,376.15Z"/><path class="cls-6" d="M635.83,356.11V377c0,4.46,1.16,6.69,3.46,6.69A2.83,2.83,0,0,0,641,383a3.43,3.43,0,0,0,1.18-1.56c.44-1.23.66-4,.66-8.23a73,73,0,0,0-.33-8.62,3.27,3.27,0,0,0-.42-1.4,4.33,4.33,0,0,0-1.15-1,3.44,3.44,0,0,1-1.71-2.93q0-2.38,3-3.31a36.52,36.52,0,0,1,11-1.77c2,0,3,1.38,3,4.12,0,.28,0,.86,0,1.73q-.06,1.85-.09,4.5v17c0,.87.59,1.66,1.75,2.38a3,3,0,0,1,1.48,2.69q0,3.46-6.42,5.35a25.76,25.76,0,0,1-7.29,1.12,3.31,3.31,0,0,1-2-.43,2.27,2.27,0,0,1-.62-1.65c-.1-1.59-.48-2.39-1.14-2.39a1.1,1.1,0,0,0-.67.22c-.2.14-.81.66-1.83,1.55a9.79,9.79,0,0,1-6.54,2.66q-5.79,0-8.16-4.27-2-3.59-2-12c0-2.11,0-3.9,0-5.39v-1.77a18.43,18.43,0,0,0-.47-4.86,4.51,4.51,0,0,0-1.7-2.45A5.72,5.72,0,0,1,619.1,361a2.21,2.21,0,0,1-.32-1.27q0-2.93,3.47-3.88a43.65,43.65,0,0,1,11.8-1.66C635.24,354.18,635.83,354.83,635.83,356.11Z"/><path class="cls-6" d="M693.16,351.84c.5,0,.94.36,1.32,1.09a5.52,5.52,0,0,1,.57,2.56,11.58,11.58,0,0,1-2.62,6.77,2.21,2.21,0,0,0-.69,1.23q0,.12.06.93a13.25,13.25,0,0,1,.09,1.46,12.18,12.18,0,0,1-2.41,7.69,14.5,14.5,0,0,1-5.59,4.31,18,18,0,0,1-7.51,1.54,11.52,11.52,0,0,1-2-.16,9.86,9.86,0,0,0-1.21-.11q-1.59,0-1.59,2a2.39,2.39,0,0,0,1,2.06,4.71,4.71,0,0,0,2.81.75,21.23,21.23,0,0,0,3.56-.43,45.86,45.86,0,0,1,7.29-.88,8.87,8.87,0,0,1,5.51,1.5,7.83,7.83,0,0,1,2.49,3.23,10.92,10.92,0,0,1,.91,4.46,14.35,14.35,0,0,1-2.22,7.54,15.81,15.81,0,0,1-7.81,6.39,25.12,25.12,0,0,1-9.33,1.61q-6.69,0-10.85-2.61a9.23,9.23,0,0,1-3.07-3.23,8.22,8.22,0,0,1-1.15-4.16,6,6,0,0,1,.65-2.77,4.11,4.11,0,0,1,1.64-1.81c.61-.3.91-.64.91-1s-.25-.69-.76-1.23a7.84,7.84,0,0,1-2.41-5.34,7.49,7.49,0,0,1,1.16-3.81,8.88,8.88,0,0,1,2.88-3c.48-.31.72-.62.72-.92a3.15,3.15,0,0,0-.9-1.62,12.78,12.78,0,0,1-3.1-8.54,11.33,11.33,0,0,1,1.1-4.92,11.56,11.56,0,0,1,3-4,16.39,16.39,0,0,1,10.76-4,20.3,20.3,0,0,1,5.24.77,18.82,18.82,0,0,0,3.76.69q3.29,0,6.54-3.31C692.52,352.07,692.89,351.84,693.16,351.84Zm-22.93,43q-.75,0-.75,1.11a4.32,4.32,0,0,0,1.93,3.67,8.25,8.25,0,0,0,5,1.41,9,9,0,0,0,4.62-1,3.11,3.11,0,0,0,1.67-2.81,2.28,2.28,0,0,0-.63-1.63,2.06,2.06,0,0,0-1.57-.68,8.16,8.16,0,0,0-1.38.16,18.93,18.93,0,0,1-3.77.34,21.62,21.62,0,0,1-3-.19,10.79,10.79,0,0,1-1.72-.31A2,2,0,0,0,670.23,394.81Zm6.57-35a2.78,2.78,0,0,0-2.43,1.46,7.27,7.27,0,0,0-.91,3.89,18.39,18.39,0,0,0,1,6.65c.66,1.67,1.54,2.5,2.62,2.5a2.84,2.84,0,0,0,2.53-1.56,8.05,8.05,0,0,0,.93-4.17,16.8,16.8,0,0,0-1-6.4Q678.57,359.88,676.8,359.8Z"/><path class="cls-6" d="M713.55,341.61l-.39,16.11c0,1.93.42,2.89,1.38,2.89.49,0,1-.42,1.42-1.27q2.92-5.43,7.8-5.42a9,9,0,0,1,7.62,3.73,10,10,0,0,1,1.79,3.92,31.87,31.87,0,0,1,.59,6.5L734,382a7.83,7.83,0,0,0,.38,2.65,7.32,7.32,0,0,0,1.61,2.12,2.91,2.91,0,0,1,.88,2.11q0,4.16-9.82,4.16-8.75,0-8.74-3.89a2.63,2.63,0,0,1,.15-1c.1-.23.45-.84,1-1.84q1.28-2.11,1.27-10.58a26.84,26.84,0,0,0-.75-7.47c-.67-2.12-1.85-3.19-3.56-3.19a2.88,2.88,0,0,0-2.71,1.69,11.45,11.45,0,0,0-.63,4.62v7.42q.21,4.94.36,5.58a9.16,9.16,0,0,0,1.39,2.43,3.15,3.15,0,0,1,.57,1.88q0,4.35-8.86,4.35-10.36,0-10.36-4.5a3.16,3.16,0,0,1,.33-1.6,9.08,9.08,0,0,1,1.63-1.71q1.14-1,1.58-5.6t.44-15.1c0-5.51-.13-9.33-.37-11.46a4.71,4.71,0,0,0-.43-1.75,3.62,3.62,0,0,0-1.19-1.13,3.45,3.45,0,0,1-1.87-2.85,3.9,3.9,0,0,1,1.41-3.12,18.8,18.8,0,0,1,5.43-2.57,27.38,27.38,0,0,1,8.64-1.93C713,339.68,713.59,340.32,713.55,341.61Z"/><path class="cls-6" d="M756.57,364v13a7.13,7.13,0,0,0,.89,3.77,2.62,2.62,0,0,0,2.27,1.46,5.9,5.9,0,0,0,3.1-1.39,1.47,1.47,0,0,1,.91-.34q.72,0,1.32,1.11a5,5,0,0,1,.6,2.42,6.69,6.69,0,0,1-2,4.58,13.57,13.57,0,0,1-10.37,4.66,9.61,9.61,0,0,1-7.74-3.48,13.81,13.81,0,0,1-2.92-9.18V362.84a2.17,2.17,0,0,0-.17-1.1c-.11-.14-.39-.21-.86-.21h-3.1q-.87,0-1.11-.36a3.81,3.81,0,0,1-.24-1.72v-1.69a2.13,2.13,0,0,1,.69-1.69L751.6,345a2.2,2.2,0,0,1,1.26-.35h2.44a1.06,1.06,0,0,1,1,.45,4,4,0,0,1,.26,1.75V352a2.61,2.61,0,0,0,.28,1.5,1.58,1.58,0,0,0,1.22.35h5.58c.74,0,1.22.17,1.44.52a4.74,4.74,0,0,1,.33,2.21v2.27a5.49,5.49,0,0,1-.42,2.56,1.64,1.64,0,0,1-1.54.71H758a1.4,1.4,0,0,0-1.14.38A2.54,2.54,0,0,0,756.57,364Z"/><path class="cls-6" d="M992.52,347.65c-1.38,0-2.24.44-2.56,1.34a20.49,20.49,0,0,0-.67,3.93,47.25,47.25,0,0,0-.32,5.3,2.33,2.33,0,0,0,.72,2,4.93,4.93,0,0,0,2.71.53,2.71,2.71,0,0,0,2-.61,3.77,3.77,0,0,0,.88-2.08q.69-4.18,2.83-4.19,3.67,0,3.67,11.23,0,7.11-1.59,10.46a3,3,0,0,1-2.66,2c-1.18,0-1.86-1-2-3a17.53,17.53,0,0,0-.38-2.77,4,4,0,0,0-.86-1.53,3.54,3.54,0,0,0-2.89-1.2,2.25,2.25,0,0,0-1.84.62,3.81,3.81,0,0,0-.42,2.34c0,.21,0,1.4,0,3.58,0,4.44.36,7.14,1.08,8.12a2,2,0,0,0,.74.75,13.12,13.12,0,0,0,2,.48,2,2,0,0,1,1.32,1,3.84,3.84,0,0,1,.54,2,3.6,3.6,0,0,1-2.71,3.8,39.23,39.23,0,0,1-11,1.2q-6.21,0-8.56-.93a3.56,3.56,0,0,1-1.72-1.53,4.78,4.78,0,0,1-.66-2.47,3.83,3.83,0,0,1,1-2.73,11,11,0,0,1,1.65-1c1.13-.56,1.8-1.87,2-3.92q.54-4.74.54-21.58a68.79,68.79,0,0,0-.39-9.43,4,4,0,0,0-1.9-3,6.34,6.34,0,0,1-2-1.48,3,3,0,0,1-.47-1.83,3.61,3.61,0,0,1,1.3-2.82,4.66,4.66,0,0,1,3.19-1.14c.8,0,2,.08,3.53.23a116.08,116.08,0,0,0,11.74.5q10.93,0,14.74-.77a5.62,5.62,0,0,1,.78-.07c.7,0,1.37.51,2,1.54a17.9,17.9,0,0,1,2.65,9.54,7.1,7.1,0,0,1-.88,3.8,2.61,2.61,0,0,1-2.29,1.43,2.16,2.16,0,0,1-1.59-.54,41.13,41.13,0,0,1-2.77-3.77,6.37,6.37,0,0,0-3.27-2.62A30.64,30.64,0,0,0,992.52,347.65Z"/><path class="cls-6" d="M1026.65,353.88a14.21,14.21,0,0,1,9.67,3.65,18.69,18.69,0,0,1,4.79,6.81,23,23,0,0,1,1.87,9.15,19.12,19.12,0,0,1-6,14.2,18.27,18.27,0,0,1-13.11,5.58,14.62,14.62,0,0,1-11.66-5.23q-4.34-5.09-4.33-13.24,0-9.07,5.3-14.85A17.54,17.54,0,0,1,1026.65,353.88Zm-2.41,8.88a2.43,2.43,0,0,0-2.12,1.25,6.17,6.17,0,0,0-.8,3.33,40,40,0,0,0,.68,6.29,58.3,58.3,0,0,0,1.61,7.06c.62,2.1,1.64,3.15,3,3.15q2.68,0,2.68-4.34a45.8,45.8,0,0,0-.67-7.35,35.4,35.4,0,0,0-1.65-6.69C1026.35,363.71,1025.43,362.81,1024.24,362.76Z"/><path class="cls-6" d="M1063.8,353.88a14.25,14.25,0,0,1,9.67,3.65,18.79,18.79,0,0,1,4.78,6.81,23,23,0,0,1,1.87,9.15,19.12,19.12,0,0,1-6,14.2,18.27,18.27,0,0,1-13.11,5.58,14.59,14.59,0,0,1-11.65-5.23Q1045,383,1045,374.8q0-9.07,5.3-14.85A17.56,17.56,0,0,1,1063.8,353.88Zm-2.41,8.88a2.43,2.43,0,0,0-2.13,1.25,6.17,6.17,0,0,0-.8,3.33,40,40,0,0,0,.68,6.29,58.3,58.3,0,0,0,1.61,7.06c.63,2.1,1.64,3.15,3,3.15,1.78,0,2.68-1.45,2.68-4.34a45.91,45.91,0,0,0-.68-7.35,36.28,36.28,0,0,0-1.64-6.69C1063.5,363.71,1062.57,362.81,1061.39,362.76Z"/><path class="cls-6" d="M1117.51,342.8v35.12a22.88,22.88,0,0,0,.19,3.85,3.31,3.31,0,0,0,1.1,1.65,6.38,6.38,0,0,1,1.46,1.69,3.85,3.85,0,0,1,.38,1.77c0,2.05-1.62,3.62-4.85,4.69a28.06,28.06,0,0,1-8.74,1.43c-.64,0-1.06-.12-1.25-.37a3.75,3.75,0,0,1-.37-1.75c-.1-1.31-.47-2-1.09-2-.34,0-.87.38-1.59,1.15a9.33,9.33,0,0,1-6.84,3.2q-4.68,0-8.41-4.43a22.31,22.31,0,0,1-3.55-6.11,24.19,24.19,0,0,1,.54-19.58,17,17,0,0,1,5.91-7.16,11.13,11.13,0,0,1,6.17-2.07,10.42,10.42,0,0,1,6.27,2,1.44,1.44,0,0,0,.72.3q1,0,1-3.3a3.8,3.8,0,0,0-.52-2.18,4.12,4.12,0,0,0-1.89-1.29,2.72,2.72,0,0,1-1.89-2.69q0-2.81,4.36-4.38,7.71-2.75,10.34-2.74C1116.64,339.64,1117.51,340.7,1117.51,342.8Zm-16.36,19.35c-1.31,0-2.34.88-3.1,2.65a23.56,23.56,0,0,0-1.54,9.31q0,5.24,1.48,7.89a3.18,3.18,0,0,0,2.86,1.92c1.3,0,2.25-1,2.85-2.9a35.42,35.42,0,0,0,.88-9.37q0-5.92-1-7.89A2.74,2.74,0,0,0,1101.15,362.15Z"/><path class="cls-6" d="M1137.81,354.88h8a27.69,27.69,0,0,1,3.54.13,1.77,1.77,0,0,1,1.16.67,2.77,2.77,0,0,1,.51,1.74,9.58,9.58,0,0,1-1,3.65l-8,18.12a9.83,9.83,0,0,0-1,3.19c0,1.21.72,1.81,2.14,1.81a3.64,3.64,0,0,0,2.46-.79,7.35,7.35,0,0,0,1.73-2.75,11.35,11.35,0,0,1,1.14-2.37,1.37,1.37,0,0,1,1.09-.59,2.51,2.51,0,0,1,2.17,1.34,6.48,6.48,0,0,1,.84,3.47,14.49,14.49,0,0,1-1,5.09,15,15,0,0,1-2.59,4.52,3.2,3.2,0,0,1-2.23,1.35,2.68,2.68,0,0,1-1.18-.39,7.5,7.5,0,0,0-3.49-.84H1126.3q-4,0-4-3a3.67,3.67,0,0,1,.3-1.39c.2-.49.9-2,2.11-4.58l6.89-14.15q1.94-3.93,1.93-5c0-1-.84-1.54-2.53-1.54a3.15,3.15,0,0,0-2.06.63,7.59,7.59,0,0,0-1.64,2.37,14.34,14.34,0,0,1-1.52,2.67,1.79,1.79,0,0,1-1.4.6,2.22,2.22,0,0,1-1.93-1.18,5.42,5.42,0,0,1-.76-3,18.06,18.06,0,0,1,1.84-7.46c1.17-2.54,2.28-3.81,3.35-3.81a2.52,2.52,0,0,1,1,.27,9.87,9.87,0,0,0,2.64.85Q1131.46,354.72,1137.81,354.88Z"/><path class="cls-6" d="M1162.51,340.26a5.56,5.56,0,0,1,4.55,2.46q2.51,3.24,2.5,9.16a36.94,36.94,0,0,1-1.07,8.44,36.47,36.47,0,0,1-2.85,8.06c-1.34,2.67-2.43,4-3.25,4s-1.94-1.71-3.4-5.12a43.77,43.77,0,0,1-2.58-8.07,37.21,37.21,0,0,1-1-7.89A15.8,15.8,0,0,1,1157,344Q1158.89,340.26,1162.51,340.26Zm.15,36.35a5.46,5.46,0,0,1,4.49,2.5,9.93,9.93,0,0,1-.06,11.68,5.71,5.71,0,0,1-4.61,2.48A5.65,5.65,0,0,1,1158,391a9.31,9.31,0,0,1-2-6.08,9,9,0,0,1,1.78-5.66A6,6,0,0,1,1162.66,376.61Z"/><path class="cls-6" d="M793.77,315.29h-5.93c-7.34,102,0,167.71,0,167.71,53.39-26.27,140.81-25.46,140.81-25.46-.33-4.25-.58-8.67-.75-13.21-21.51.39-89.59,3.22-134,23.2C793.85,467.53,786.56,407.93,793.77,315.29Z"/><path class="cls-6" d="M847.9,319.55l-.22-5.25s4.83-1.17,10.3-2a114.42,114.42,0,0,0-16.3,3l.22,5.75c7.29.92,8.23,3.33,4.26,5.5C856,324.32,857.78,320.69,847.9,319.55Z"/><path class="cls-6" d="M815.09,323.44l-1.23-8.15h-6.15l1.37,10c7.37.41,10.52,3.92,7.82,6.67C827.42,330,825.36,324,815.09,323.44Z"/><path class="cls-6" d="M886.61,315.61l-2-7.22s8.39-1.18,14.53-1.76c-2.58-.57-20.54,2.19-20.54,2.19l2,7.91c8.11.46,6.4,7.67-.08,11.69C891.42,326.51,896.85,316.14,886.61,315.61Z"/><path class="cls-6" d="M917.31,314.3l-2-8.53a111.25,111.25,0,0,1,15.52-1.87c-10-.53-21.53,2.05-21.53,2.05l2,9.34c6.07-.93,5.94,8.44,1.09,12.92C922.55,328.39,925.3,313.18,917.31,314.3Z"/><path class="cls-18" d="M900.62,316s-14.68,4.76,0,12.8c5.15,2.81,9.15,1.82,11.77-.6a13.42,13.42,0,0,1-5.76-1.56c-14.68-7.34,0-11.69,0-11.69l-1.33-8.54a28.44,28.44,0,0,0-6.16.21l.15,0Z"/><path class="cls-18" d="M864.59,312.42v6.72s-14.68,6.93,1.33,11.24a18.47,18.47,0,0,0,14.6-2,20.88,20.88,0,0,1-8.59-.34c-16-3.93-1.34-10.26-1.34-10.26v-6.15c-3-.59-8-.1-12.61.61A23.91,23.91,0,0,1,864.59,312.42Z"/><path class="cls-18" d="M798.52,322.38S788,335.86,805,335.28c6.44-.23,10.3-1.63,11.95-3.32a38.89,38.89,0,0,1-5.94.6c-16.93.54-6.43-11.78-6.43-11.78V314.3H793.85c0,.33-.05.66-.08,1h4.75Z"/><path class="cls-18" d="M942,304.45a51.08,51.08,0,0,0-11.17-.55,36.26,36.26,0,0,1,5.16.61s-10.36,80.57-8.09,139.82c4.31-.08,6.76-.06,6.76-.06C930,389.79,942,304.45,942,304.45Z"/><path class="cls-18" d="M830.66,321.89s-9.45,9.92,4.56,7.77c5-.77,8.73-1.91,10.94-3.12-1.47.33-3.11.63-4.93.89-14,2-4.56-7.1-4.56-7.1v-6h-23l.15,1h16.8Z"/><path class="cls-18" d="M936,304.51a36.26,36.26,0,0,0-5.16-.61,111.25,111.25,0,0,0-15.52,1.87l2,8.53c8-1.12,5.24,14.09-4.92,13.91-2.62,2.42-6.62,3.41-11.77.6-14.68-8,0-12.8,0-12.8l-1.33-9.34-.15,0c-6.14.58-14.53,1.76-14.53,1.76l2,7.22c10.24.53,4.81,10.9-6.09,12.81a18.47,18.47,0,0,1-14.6,2c-16-4.31-1.33-11.24-1.33-11.24v-6.72a23.91,23.91,0,0,0-6.61-.14c-5.47.85-10.3,2-10.3,2l.22,5.25c9.88,1.14,8.12,4.77-1.74,7-2.21,1.21-5.93,2.35-10.94,3.12-14,2.15-4.56-7.77-4.56-7.77v-6.6h-16.8l1.23,8.15c10.27.52,12.33,6.54,1.81,8.52-1.65,1.69-5.51,3.09-11.95,3.32-16.92.58-6.43-12.9-6.43-12.9v-7.09h-4.75c-7.21,92.64.08,152.24.08,152.24,44.46-20,112.54-22.81,134-23.2C925.63,385.08,936,304.51,936,304.51ZM884.61,415.39c-4.79,0-8.68-10.88-8.68-24.29s3.89-24.29,8.68-24.29,8.67,10.88,8.67,24.29S889.4,415.39,884.61,415.39Z"/><ellipse class="cls-18" cx="884.61" cy="391.1" rx="8.68" ry="24.29"/></g><g id="Layer_12" data-name="Layer 12"><path class="cls-19" d="M657.09,749.94h-3.67l-41.87,0H600l5.24.1c17.58.31,33.5.31,47.94.06l3.72-.07,2,0,5.42-.13ZM880.68,959.75q-1.95-10.74-4-21.33c-1.22-6.21-2.5-12.37-3.79-18.51-13.68-64.82-31-126.24-49.14-190.95a17,17,0,0,0-11.92-12.2l-.35-.08c-.43-.1-.88-.18-1.33-.24q-6.45-.87-12.82-1.7l-.79-.1q-41.1-5.37-78.91-9.39l-7.16-.76-2.25-.23q-9.4-1-18.6-1.88-10.43-1-20.58-2l-1.73-.15q-8.87-.81-17.51-1.54l-7.31-.6-3.26-.27-7.82-.61c-40.44-3.15-77.47-5.14-111.22-6.23q-11.65-.39-22.78-.63-19.5-.42-37.43-.48h-2.35c-64.91-.13-114.29,3.16-149.44,6.93q-12.47,1.33-22.56,2.72c-16.67,2.25-28.58,4.43-36,5.95a17.13,17.13,0,0,0-12.51,11.72c-19.58,59.45-36.76,116.34-51.63,175.68q-3.25,12.87-6.32,25.92c-2.14,9-4.22,18.07-6.24,27.24-2.25,10.11,3.76,20.19,13.07,22,286.28,54.55,390.73,62.53,681,13.22C876.23,979.69,882.51,969.86,880.68,959.75ZM657.09,749.94h-3.67l-41.87,0-6.32.12c17.58.31,33.5.31,47.94.06l3.72-.07,2,0,5.42-.13Zm-151.88-4.2h-.1L290.48,724.84q24.7,3.06,47.84,5.68c64.12,7.28,119.35,12.17,166.85,15.27h.09l1.38.09Zm171.69,3-1.39,0-64,1.19,41.87,0h11l11.11-.47,1.38-.05,3-.13h0l10.87-.45,2.76-.12.44,0,4.41-.28.69,0Zm-171.73-3h.09l1.38.09,1.76.11c33.84,2.17,63.72,3.42,90.05,4l1.54,0,5.24.1c17.58.31,33.5.31,47.94.06l3.72-.07,2,0,5.42-.13h.14q5.73-.16,11.12-.37l1.38,0Z"/><path class="cls-20" d="M782.88,734.49s-18.46,9.62-83.77,13.87l-.69,0-4.41.28-.44,0-2.81.16-2.39.13c-2.75.14-5.57.28-8.47.4h0l-2.92.12-1.38,0q-5.39.21-11.12.37h-.14l-5.42.13-2,0-3.72.07c-14.44.25-30.36.25-47.94-.06L600,750l-1.54,0c-26.33-.57-56.21-1.82-90.05-4l-1.76-.11-1.38-.09h-.09c-47.5-3.1-102.73-8-166.85-15.27q-23.15-2.62-47.84-5.68l-9.16-1.14s2.79-.54,8.48-1.36c7.29-1.08,19.35-2.62,36.37-4.14,31.79-2.83,80.89-5.55,148.69-4.81h.06l2.6,0q15.94.2,33.25.65,17.64.48,36.74,1.28,35.22,1.46,75.38,4.2l1.85.13,6.47.45,6.1.44q12.84.95,26.16,2l.16,0,6.1.51h.19l2.3.19,1.58.14,7.82.67,7.54.68.51,0,3.7.33h.09l3.33.31,6.53.61.31,0q14.88,1.4,30.31,3c.37,0,.75.07,1.12.12q15.93,1.63,32.47,3.48l1.26.14Q775.78,733.66,782.88,734.49Z"/><path class="cls-21" d="M866.94,981.26c-290.26,49.31-394.71,41.33-681-13.22-9.31-1.77-15.32-11.85-13.07-22,2-9.17,4.1-18.23,6.24-27.24C321,954.59,575.8,995.42,876.63,938.42q2.08,10.59,4,21.33C882.51,969.86,876.23,979.69,866.94,981.26Z"/><path class="cls-22" d="M806.3,904l-15.44,2.53a8.88,8.88,0,0,1-10.1-7.67L763,778.29a9.21,9.21,0,0,1,7.41-10.53l15.44-2.52A8.86,8.86,0,0,1,796,772.9l17.76,120.58A9.21,9.21,0,0,1,806.3,904Z"/><path d="M243.08,768.08S238.68,865,249.67,906c0,0,12.43,5,20,0s-4.56-77-4.56-77,56.16-2,42.92-36S243.08,768.08,243.08,768.08Z"/><path d="M317.16,781.26s-5.7,92,1.42,118.64c0,0,39.91,10.23,44.85,0,0,0,1.76-11.92-.91-13.63l-2.68-1.71s-28.46,1-30.59,0-2.85-98.18,1.42-100.23C330.67,784.33,322.85,777.17,317.16,781.26Z"/><path d="M339,875s10-76,31-84,40.13,74,33.74,82a15.16,15.16,0,0,1-10.9.78C386.42,872,388.25,838,382.78,838s-19.16-5-21.89-1-5.47,29-5.47,34S339,875,339,875Z"/><path d="M637,899.07s2.59-64.12,18.2-72.37,35.88,58.69,31.5,65.84a11,11,0,0,1-8.33,1.47c-5.07-1-6-29.49-10.17-29.08s-15.08-2.73-16.92.81-2.25,24.59-1.92,28.76S637,899.07,637,899.07Z"/><path d="M473,925.87S493.78,803,526.3,791.42s55.76,123,45.46,135.58c0,0-7,3.85-16.65.53s-4.43-58.47-12.76-58.85-28.81-9.42-33.26-3.1-10.43,46.77-10.8,54.9S473,925.87,473,925.87Z"/><path d="M437.76,830.32s-16.26-29.75-25-29.88-23,6.88,20.67,39.88c0,0,5.59,26-43.56,74,0,0-11.92,10.06,0,14.53S459.89,847,463,809.16c0,0-.59-24.31-15.64-14.07S456.3,804.32,437.76,830.32Z"/><path d="M626.35,832.16s-26.68-47-46.46,1.67S606.12,923.1,628,889.64c0,0,10.17-21.39,2.78-25.83s-26.6-2.71-26.6-2.71-4.64,4.18.26,7.88,15.56-2.48,16.92,2.15-12.2,33.16-28.76,6.79,8.44-67,21.35-45.19S626.35,832.16,626.35,832.16Z"/><path d="M691.24,852.23s10-1.87,11.84-.08-3,17.77,4.59,27.59,1.44,11-5.54,10.43S686.4,865.77,691.24,852.23Z"/><ellipse cx="695" cy="838.5" rx="8" ry="6.5"/><path d="M716.39,894.74s.78-65.31-2.54-69.12,4.33-8.51,9.75-3.51,8.68,31.88,16,42.87,3.49-62.11-.36-72.67,10.64-4.94,10.85-2.24,12.8,96.86-3.93,100.92c0,0-7.32,8.75-20.44-29.62,0,0,4.25,40.44-.41,44.89S716.26,905.63,716.39,894.74Z"/><path class="cls-19" d="M263,809l-3.7-29s28.7,1,35.7,17S263,809,263,809Z"/><path class="cls-19" d="M364,823.06s8.66-30.58,14.83-16.82,5.71,19,5.71,19S374,827.11,364,823.06Z"/><path class="cls-19" d="M650.88,854.31S655.29,829.84,661,840s5.73,14.22,5.73,14.22A31.35,31.35,0,0,1,650.88,854.31Z"/><path class="cls-19" d="M514,844.79s13.07-49.68,22.37-27.32S545,848.26,545,848.26,529.08,851.38,514,844.79Z"/><path class="cls-16" d="M503.4,602.12l.74-.13Z"/><path class="cls-16" d="M504.14,602h0Z"/><path class="cls-16" d="M503,602.19l.42-.07Z"/><path class="cls-16" d="M502.84,602.22l.14,0Z"/><path class="cls-16" d="M502.84,602.22Z"/><path class="cls-16" d="M505.6,601.74l1.1-.19Z"/><path class="cls-16" d="M506.7,601.55l.15,0Z"/><path class="cls-16" d="M504.17,602l.6-.11Z"/><path class="cls-16" d="M504.77,601.88l.83-.14Z"/><path class="cls-16" d="M464.54,473.63l.13-.11Z"/><path class="cls-16" d="M464.28,473.85l.26-.22Z"/><path class="cls-16" d="M464.67,473.52Z"/><path class="cls-16" d="M464.25,473.88l0,0Z"/><path class="cls-16" d="M463.44,474.56l.1-.09Z"/><path class="cls-16" d="M506.85,601.52h0a60.7,60.7,0,0,1-16.94-.23,30.52,30.52,0,0,1-.49,6.82c-1,5.32-2.55,10.31-5.32,14.36-4.54,6.68-12.24,10.8-25.5,9.65-24.9-2.16-57.57-14.36-79.95-28-19.18-11.66-23.5-24.76-16.16-37.66l0,0c7.34-12.87,18.22-20.67,34.73-15.56,2.11.66,4.33,1.44,6.65,2.31a208.37,208.37,0,0,1-21.27-25.43c-12.86-18.39-11.55-32.13.36-41,7-5.18,14.36-8.29,21.91-7.68,5.35.42,10.77,2.69,16.17,7.39,8.71,7.54,18.79,19.35,29.19,30.46-.77-1.89-1.6-3.72-2.48-5.44-8.8-17.11-.24-30.39,15.71-36.95l0,0c16-6.55,32.59-8.2,45.09,10,14.6,21.22,24.27,54.8,25.56,81C535.22,588,524.86,599.5,506.85,601.52Z"/><path class="cls-16" d="M463.87,474.2l0,0Z"/><path class="cls-16" d="M463.89,474.18l.36-.3Z"/><path class="cls-16" d="M463.54,474.47l.33-.27Z"/><path class="cls-16" d="M362.59,566.18l.11-.22Z"/><path class="cls-16" d="M362.47,566.44l0-.09Z"/><path class="cls-16" d="M362.57,566.23l0-.05Z"/><path class="cls-16" d="M362.7,566l.13-.27Z"/><path class="cls-16" d="M489.4,608.2c.16.89.23,1.3.25,1.43C489.61,609.41,489.45,608.47,489.4,608.2Z"/><path class="cls-16" d="M362.45,566.48l0,0Z"/><path class="cls-16" d="M489.38,608.12l0,.08Z"/><path class="cls-16" d="M362.83,565.69l.14-.31Z"/><path class="cls-16" d="M489.65,609.63s0,.06,0,0Z"/><path class="cls-16" d="M362.51,566.35l.06-.12Z"/><path class="cls-16" d="M363.78,563.69l0-.07Z"/><path class="cls-16" d="M363.69,563.88l.09-.19Z"/><path class="cls-16" d="M363.81,563.62c.13-.26.1-.22,0,0Z"/><path class="cls-16" d="M363.52,564.22l.17-.34Z"/><path class="cls-16" d="M363.49,564.29l0-.07Z"/><path class="cls-16" d="M363,565.38l.06-.11Z"/><path class="cls-16" d="M363.29,564.71l.2-.42Z"/><path class="cls-16" d="M384.05,485.82l.09-.08Z"/><path class="cls-16" d="M383.75,486.08l.3-.26Z"/><path class="cls-16" d="M384.14,485.74,385,485Z"/><path class="cls-16" d="M383,486.7l.12-.09Z"/><path class="cls-16" d="M383.5,486.29l.25-.21Z"/><path class="cls-16" d="M383.14,486.61l.25-.22Z"/><path class="cls-16" d="M382.94,486.78l.08-.08Z"/><path class="cls-16" d="M383.39,486.39l.11-.1Z"/><path class="cls-23" d="M458.56,632.13c-24.9-2.16-57.57-14.36-79.95-28-19.18-11.66-23.5-24.76-16.16-37.66l0,0c7.34-12.87,18.22-20.67,34.73-15.56,2.11.66,4.33,1.44,6.65,2.31a208.37,208.37,0,0,1-21.27-25.43c-12.86-18.39-11.55-32.13.36-41,7-5.18,14.36-8.29,21.91-7.68,45.43,47.81,39.77,52,79.21,143.38C479.52,629.16,471.82,633.28,458.56,632.13Z"/><path class="cls-24" d="M675.56,749.46c0-.22,0-.44,0-.66a253.49,253.49,0,0,0-3.29-25.46c-1.35-7.62-3-15.35-5-23.06q-1.68-6.78-3.64-13.51A378.75,378.75,0,0,0,649,645.27q-.9-2.13-1.81-4.2c-10.63-24.16-22.49-42.76-32.47-48.68l-4.61-2.73c-31.71-18.73-18.67-9.84-50.6-18.63-7.08-1.95-15.8-2.55-25.3-1.79A126.91,126.91,0,0,0,490.88,581a115.13,115.13,0,0,0-19.48,11.58,92.17,92.17,0,0,0-17,16.19.13.13,0,0,0-.05.06,75.13,75.13,0,0,0-12,20.79q-.9,2.35-1.63,4.82c-2,6.87-1.36,15.19,1.52,24.46q.94,3,2.19,6.17c.21.53.43,1.07.66,1.61.45,1.09.92,2.18,1.43,3.28.25.55.51,1.1.77,1.66a158.21,158.21,0,0,0,10.32,18.34,254.18,254.18,0,0,0,17.28,23.47,363.32,363.32,0,0,0,30.25,32.34l.06.06h.09l1.38.09,1.76.11c33.84,2.17,63.72,3.42,90.05,4l1.54,0,5.24.1c17.58.31,33.5.31,47.94.06l3.72-.07,2,0,5.42-.13h.14q5.73-.16,11.12-.37A.34.34,0,0,0,675.56,749.46Z"/><path class="cls-25" d="M677,749.51l-1.38,0q-5.39.21-11.12.37h-.14l-5.42.13-2,0-3.72.07c-14.44.25-30.36.25-47.94-.06L600,750l-1.54,0c-26.33-.57-56.21-1.82-90.05-4a368,368,0,0,1-30.88-32.57,262.77,262.77,0,0,1-17.59-23.5c-14.7-22.29-22.2-42.88-18-57.16.31-1,.63-2,1-3a74.29,74.29,0,0,1,11.34-20.93.13.13,0,0,1,.05-.06q1.56-2.06,3.27-4A91.7,91.7,0,0,1,471.19,592a113.53,113.53,0,0,1,21-12.73,127.59,127.59,0,0,1,42-11.6c10-.91,19.18-.34,26.58,1.69,32.3,8.9,18.59-.29,51.7,19.29-.78.31-1.57.64-2.38,1-16.42,7-39.14,20.57-72.61,44.22,76.07-10.12,97.16-5.33,109.69,7.19a46.91,46.91,0,0,1,3.26,3.62l-1.45.58c-16.53,6.76-39.64,20.47-74.22,44.9,46.89-6.24,72.89-6.8,88.87-3.4l1.87.43c1.24,4.39,2.41,8.81,3.5,13.23,1.89,7.72,3.51,15.45,4.81,23.05a249.23,249.23,0,0,1,3.1,25.29c0,.22,0,.43,0,.64A.38.38,0,0,1,677,749.51Z"/><g class="cls-26"><path class="cls-25" d="M598.45,750c-26.33-.57-56.21-1.82-90.05-4l-1.76-.11-1.38-.09-.05,0a364.11,364.11,0,0,1-30.29-32.35,256.38,256.38,0,0,1-17.3-23.47,160.27,160.27,0,0,1-10.36-18.34c-.26-.56-.52-1.11-.77-1.66-.5-1.1-1-2.19-1.43-3.28-.23-.54-.45-1.08-.66-1.61q-1.25-3.15-2.19-6.17c-2.93-9.33-3.62-17.7-1.57-24.6.47-1.6,1-3.16,1.58-4.7a76.64,76.64,0,0,1,15.4-24.84,94.53,94.53,0,0,1,13.72-12.32,114.76,114.76,0,0,1,19.54-11.61V581c.14,7.33.32,14.17.58,20.58,1.7,41.75,7,65.61,28.68,89.49,7.18,7.89,16.15,15.78,27.37,24.32C561,725.59,577.69,736.76,598.45,750Z"/></g><path class="cls-27" d="M708.3,707.9a37.68,37.68,0,0,1-1.18,7.94,68.2,68.2,0,0,1-3.14,9.47c-.12.29-.23.57-.35.85-1.2,2.87-2.52,5.62-3.85,8.17a133,133,0,0,1-8.29,13.91l-.68.58,0,0-2.39.13c-2.75.14-5.57.28-8.47.4h0q-7.38.32-15.42.54h-.14l-5.42.13-2,0-3.72.07c-14.44.25-30.36.25-47.94-.06l.09-.11,21.49-24.79,2.36-2.72,2-2.36,11.31-13,7.23-8.34,3.16-3.64c40.84-11.89,53.81-3.88,55.26,9.16A24.28,24.28,0,0,1,708.3,707.9Z"/><path class="cls-28" d="M704,725.31c-.12.29-.23.57-.35.85-1.2,2.87-2.52,5.62-3.85,8.17a133,133,0,0,1-8.29,13.91l-.68.58,0,0-2.39.13c-2.75.14-5.57.28-8.47.4h0q-7.38.32-15.42.54h-.14l-5.42.13-2,0,.2-.16,8.76-6.94.85-.68,13.4-10.63,7-5.53s3.79-.39,9.71-.64C698.93,725.42,701.36,725.35,704,725.31Z"/><path class="cls-29" d="M867.54,656.56c-.25.53-.51,1.05-.77,1.57-.37.73-.74,1.45-1.12,2.17a140.76,140.76,0,0,1-53.87,56.46,136.88,136.88,0,0,1-26,11.66,143.59,143.59,0,0,1-17,4.46c-1.82.36-3.65.69-5.51,1a204.08,204.08,0,0,0-34.72,4.53c-9.75,2.15-20.21,5.31-29.45,10l-.69,0-4.41.28-.44,0-2.81.16-2.39.13c-2.75.14-5.57.28-8.47.4h0l.07-.11h0c.33-.55.68-1.13,1.06-1.72,2.41-3.83,5.62-8.58,9.84-14.44.08-.12.16-.23.25-.34.83-1.17,1.71-2.37,2.62-3.61a.76.76,0,0,0-.15.08c-.61.35-2.93,1.67-6.16,3.41A201.15,201.15,0,0,1,665.85,743c-8,3.07-13.8,3.74-10.25-2.83,1.32-2.43,3.92-5.87,8.18-10.56q2.63-2.9,6.14-6.46l.84-.86s0-.12.12-.32a8.65,8.65,0,0,0,.35-4.58c-1-3.85-6.29-7.32-27.45.87-2.43.94-4.58,1.71-6.47,2.31a40,40,0,0,1-8.14,1.92c-3.84.36-4.82-.93-4.43-2.81.78-3.75,7-9.82,7-9.82.56-.65,1.84-1.79,3.65-3.64a90.17,90.17,0,0,0,7-8.08c10.52-13.64,25.86-40.92,33.18-92.88,9.84-69.94,122.84-97.93,174.78-65.27l.18.12A56.36,56.36,0,0,1,866.64,555C885.47,581.47,884.76,621.13,867.54,656.56Z"/><path class="cls-30" d="M867.54,656.56c-.25.53-.51,1.05-.77,1.57-.37.73-.74,1.45-1.12,2.17a140.8,140.8,0,0,1-54.22,56.38,137.66,137.66,0,0,1-26.34,11.62,142.68,142.68,0,0,1-17.56,4.44c-1.33.25-2.68.49-4,.7a203.68,203.68,0,0,0-36,4.8c-9.72,2.22-20,5.46-29.12,10.16l-4.41.28-.44,0-2.81.16-2.39.13c-2.75.14-5.57.28-8.47.4h0l.07-.11h0c.33-.55.68-1.13,1.06-1.72,2.35-3.83,5.54-8.57,9.76-14.45.19-.25.36-.51.55-.76.72-1,1.47-2,2.25-3.1l.38-.53s-2.84,1.65-7,3.89a206,206,0,0,1-20.24,9.72c-8.18,3.21-14.25,4.12-11.1-2.15,1.21-2.4,3.75-5.83,8-10.59,1.73-1.92,3.75-4.06,6.09-6.44l1.15-1.17.1-.1a8.92,8.92,0,0,0,.47-4.91c4.47-1,10.17-2.22,16.77-3.83,6-1.47,12.8-3.21,20.08-5.23,3-.84,6.11-1.72,9.28-2.65C776.35,687.93,858.85,653.87,853.21,600c-3-29-3.43-47.77-2.63-59.87,0-.19,0-.37,0-.56a56.79,56.79,0,0,1,16.24,15C885.76,581.14,885,621,867.54,656.56Z"/><path class="cls-31" d="M711.48,572s20.76-15.73,32.69-9.77-5.46,3.54-18.73,13.76S704,577.47,711.48,572Z"/><path class="cls-32" d="M509.36,733.35a117,117,0,0,1-2.72,12.53c-47.83-3.09-103.54-8-168.32-15.36q-23.15-2.62-47.84-5.68c-.23-.82-.46-1.65-.68-2.5-.6-2.31-1.2-4.69-1.78-7.14a99.22,99.22,0,0,1-2.44-15.63,105,105,0,0,1,2.27-30.78,114.49,114.49,0,0,1,5.87-18.71c27.19-66.52,112.62-105.54,144-33.74,22.87,52.3,45.71,63.54,59.63,74.06,7.72,5.82,12.69,11.43,13.41,23.67A88.72,88.72,0,0,1,509.36,733.35Z"/><g class="cls-33"><path class="cls-34" d="M338.32,730.52q-23.15-2.62-47.84-5.68c-.23-.82-.46-1.65-.68-2.5-.6-2.31-1.2-4.69-1.78-7.14a99.22,99.22,0,0,1-2.44-15.63,105,105,0,0,1,2.27-30.78c6.55,9.61,13.23,19,20.29,28.06,5.72,7.36,11.7,14.5,18,21.35C330.08,722.42,334.11,726.53,338.32,730.52Z"/></g><ellipse class="cls-35" cx="356.06" cy="605.73" rx="5.64" ry="5.87" transform="translate(-328.59 763.67) rotate(-72.54)"/><ellipse class="cls-36" cx="338.01" cy="619.14" rx="5.64" ry="5.87" transform="translate(-354.01 755.84) rotate(-72.54)"/><ellipse class="cls-37" cx="354.76" cy="624.62" rx="5.64" ry="5.87" transform="translate(-347.52 775.66) rotate(-72.54)"/><ellipse class="cls-38" cx="321.42" cy="646.69" rx="5.64" ry="5.87" transform="matrix(0.3, -0.95, 0.95, 0.3, -391.9, 759.31)"/><ellipse class="cls-36" cx="330.42" cy="681.52" rx="5.64" ry="5.87" transform="translate(-418.83 792.27) rotate(-72.54)"/><path class="cls-39" d="M404,600.82c.92.16,3,.68,4,.71,1.83.07,11.18,2.16,19.55,21.53,9.93,23-5.14,9.29-8.61,6a13.13,13.13,0,0,1-1.23-1.35C414.11,623.21,389,598.28,404,600.82Z"/></g></g></svg>